<?xml version="1.0" encoding="iso-8859-1"?>
<!-- Generator: Adobe Illustrator 21.0.0, SVG Export Plug-In . SVG Version: 6.00 Build 0)  -->
<svg xmlns="http://www.w3.org/2000/svg" xmlns:xlink="http://www.w3.org/1999/xlink" version="1.1" id="Capa_1" x="0px" y="0px" viewBox="0 0 511.886 511.886" style="enable-background:new 0 0 511.886 511.886;" xml:space="preserve" width="512" height="512">
<g>
	<path d="M334.501,24.203c-2.813-2.813-6.628-4.394-10.606-4.394c-0.001,0-0.003,0-0.005,0L95.351,19.886   C70.506,19.895,50.292,40.11,50.292,64.95v401.871c0,12.004,4.698,23.312,13.228,31.841c8.528,8.528,19.83,13.224,31.829,13.223   c0.003,0,0.008,0,0.011,0l303.723-0.077c24.847-0.006,45.061-20.222,45.061-45.064V140.059c0-3.978-1.581-7.793-4.394-10.606   L334.501,24.203z M363.575,407.203c5.858,5.858,5.858,15.355,0,21.213c-2.929,2.929-6.768,4.394-10.606,4.394   s-7.678-1.464-10.606-4.394l-40.606-40.606H191.681l-40.606,40.606c-2.929,2.929-6.768,4.394-10.606,4.394   s-7.678-1.464-10.606-4.394c-5.858-5.858-5.858-15.355,0-21.213l39.107-39.107v-87.073l-39.107-39.107   c-5.858-5.858-5.858-15.355,0-21.213c5.857-5.858,15.355-5.858,21.213,0l40.106,40.106h112.074l40.106-40.106   c5.857-5.858,15.355-5.858,21.213,0c5.858,5.858,5.858,15.355,0,21.213l-39.606,39.606v87.074L363.575,407.203z M369.147,157.55   c-2.322,5.605-7.792,9.26-13.858,9.26H125.285c-8.284,0-15-6.716-15-15v-60c0-8.284,6.716-15,15-15h170.003   c3.978,0,7.793,1.581,10.606,4.394l60,60C370.185,145.492,371.468,151.945,369.147,157.55z"/>
	<path d="M198.969,290.964v66.846h95.882c0.04-0.034,0.077-0.073,0.118-0.107v-66.893h-95.829   C199.083,290.862,199.026,290.912,198.969,290.964z"/>
	<polygon points="140.285,106.809 140.285,136.809 319.075,136.809 289.075,106.809  "/>
	<path d="M457.2,56.012L405.582,4.394c-5.857-5.858-15.355-5.858-21.213,0l-13.609,13.609l72.831,72.832l13.61-13.61   C463.058,71.367,463.058,61.87,457.2,56.012z"/>
</g>















</svg>
