<?xml version="1.0" encoding="iso-8859-1"?>
<!-- Generator: Adobe Illustrator 21.0.0, SVG Export Plug-In . SVG Version: 6.00 Build 0)  -->
<svg xmlns="http://www.w3.org/2000/svg" xmlns:xlink="http://www.w3.org/1999/xlink" version="1.1" id="Capa_1" x="0px" y="0px" viewBox="0 0 511.796 511.796" style="enable-background:new 0 0 511.796 511.796;" xml:space="preserve" width="512" height="512">
<g>
	<path d="M255.795,0c-0.171,0-0.342,0-0.513,0c-10.418,0.021-18.82,8.55-18.82,18.967v39.071c0,10.534,8.585,18.962,19.116,18.962   c0.008,0,0.014,0,0.022,0c0.065,0,0.131,0,0.196,0c98.859,0,179,80.141,179,179c0,0.176,0,0.351-0.001,0.526   c-0.031,10.543,8.416,19.14,18.959,19.14h39.071c10.418,0,18.935-8.402,18.969-18.819c0.001-0.282,0.001-0.565,0.001-0.848   C511.795,114.615,397.18,0,255.795,0z"/>
	<path d="M236.501,188.222c-48.013,0-87.074,39.061-87.074,87.074c0,48.012,39.061,87.073,87.074,87.073   s87.074-39.061,87.074-87.073C323.575,227.283,284.514,188.222,236.501,188.222z M236.501,320.918   c-25.156,0-45.622-20.466-45.622-45.622s20.466-45.623,45.622-45.623s45.622,20.466,45.622,45.623S261.657,320.918,236.501,320.918   z"/>
	<path d="M419.125,291.293c-9.28-9.308-14.369-21.686-14.33-34.862l0.001-0.431c0-82.159-66.841-149-149-149l-0.145,0h-0.047h-0.026   c-27.082,0-49.116-21.964-49.116-48.962V40.694C90.186,55.499,0.001,155.063,0.001,275.296c0,130.407,106.093,236.5,236.5,236.5   c120.118,0,219.604-90.014,234.556-206.129h-17.303C440.664,305.667,428.366,300.562,419.125,291.293z M236.501,392.369   c-64.555,0-117.074-52.519-117.074-117.073c0-64.555,52.519-117.074,117.074-117.074s117.074,52.519,117.074,117.074   C353.575,339.85,301.056,392.369,236.501,392.369z"/>
	<path d="M236.501,259.673c-8.614,0-15.622,7.008-15.622,15.623s7.008,15.622,15.622,15.622s15.622-7.008,15.622-15.622   S245.115,259.673,236.501,259.673z"/>
</g>















</svg>
