<?xml version="1.0" encoding="iso-8859-1"?>
<!-- Generator: Adobe Illustrator 21.0.0, SVG Export Plug-In . SVG Version: 6.00 Build 0)  -->
<svg xmlns="http://www.w3.org/2000/svg" xmlns:xlink="http://www.w3.org/1999/xlink" version="1.1" id="Capa_1" x="0px" y="0px" viewBox="0 0 512 512" style="enable-background:new 0 0 512 512;" xml:space="preserve" width="512" height="512">
<g>
	<path d="M261.5,15c0-8.284-6.716-15-15-15h-140c-8.284,0-15,6.716-15,15v44.667h170V15z"/>
	<path d="M416.106,280.394L261.5,125.787v-36.12h-170v377.332c0,24.814,20.187,45.001,45,45.001h239c24.813,0,45-20.187,45-45V291   C420.5,287.022,418.92,283.207,416.106,280.394z M256,428.953c-33.084,0-60-26.916-60-60c0-19.046,14.395-53.804,20.584-67.863   c5.375-12.211,11.003-23.502,15.848-31.793c6.264-10.721,12.78-20.344,23.568-20.344s17.305,9.623,23.568,20.344   c4.845,8.291,10.473,19.582,15.848,31.793c6.189,14.06,20.584,48.817,20.584,67.863C316,402.037,289.084,428.953,256,428.953z"/>
	<path d="M256,288.549c-4.026,7.375-9.094,17.72-14.464,30.436C230.803,344.4,226,362.394,226,368.953c0,16.542,13.458,30,30,30   c16.542,0,30-13.458,30-30c0-6.559-4.804-24.553-15.536-49.968C265.094,306.269,260.026,295.925,256,288.549z"/>
</g>















</svg>
