<?xml version="1.0" encoding="iso-8859-1"?>
<!-- Generator: Adobe Illustrator 21.0.0, SVG Export Plug-In . SVG Version: 6.00 Build 0)  -->
<svg xmlns="http://www.w3.org/2000/svg" xmlns:xlink="http://www.w3.org/1999/xlink" version="1.1" id="Capa_1" x="0px" y="0px" viewBox="0 0 512 512" style="enable-background:new 0 0 512 512;" xml:space="preserve" width="512" height="512">
<g>
	<polygon points="75.501,60 75.501,144.998 330.526,145 206.357,60  "/>
	<path d="M496.497,195.004c0-4.922-2.415-9.531-6.462-12.333L230.039,2.667C227.53,0.931,224.552,0,221.501,0h-191   c-3.979,0-7.794,1.581-10.606,4.394C17.081,7.207,15.501,11.022,15.501,15l0.003,377h352.09   c28.341-30.721,68.912-49.999,113.905-50c3.979,0,7.794-1.581,10.606-4.394c2.813-2.813,4.394-6.628,4.394-10.607L496.497,195.004z    M108.501,281h-48c-8.284,0-15-6.716-15-15s6.716-15,15-15h48c8.284,0,15,6.716,15,15S116.785,281,108.501,281z M393.322,164.436   c-1.944,6.282-7.753,10.565-14.329,10.565l-318.492-0.003c-8.284,0-15-6.716-15-15V45c0-8.284,6.716-15,15-15H211   c3.024,0,5.978,0.914,8.473,2.623l167.994,115C392.893,151.337,395.267,158.153,393.322,164.436z"/>
	<path d="M15.504,422l0.001,75c0,8.284,6.716,15,15,15h280.996c8.284,0,15-6.716,15-15c0-27.19,7.046-52.762,19.395-75H15.504z"/>
</g>















</svg>
