<?xml version="1.0" encoding="iso-8859-1"?>
<!-- Generator: Adobe Illustrator 21.0.0, SVG Export Plug-In . SVG Version: 6.00 Build 0)  -->
<svg xmlns="http://www.w3.org/2000/svg" xmlns:xlink="http://www.w3.org/1999/xlink" version="1.1" id="Capa_1" x="0px" y="0px" viewBox="0 0 512 512" style="enable-background:new 0 0 512 512;" xml:space="preserve" width="512" height="512">
<g>
	<path d="M30.042,191.417v189.667h452V191.417H30.042z M302.649,290.021l-56.938,56.938c-2.929,2.929-6.768,4.394-10.606,4.394   s-7.678-1.464-10.606-4.394c-5.858-5.858-5.858-15.355,0-21.213l31.332-31.332h-35.789c-6.067,0-11.536-3.655-13.858-9.26   c-2.321-5.605-1.038-12.057,3.252-16.347l42.998-42.998c5.857-5.858,15.355-5.858,21.213,0c5.858,5.858,5.858,15.355,0,21.213   l-17.392,17.392h35.789c6.067,0,11.536,3.655,13.858,9.26C308.222,279.279,306.939,285.731,302.649,290.021z"/>
	<path d="M497,101.583h-29.958V79.417c0-16.569-13.431-30-30-30s-30,13.431-30,30v22.167h-45V56.417c0-8.284-6.716-15-15-15h-182   c-8.284,0-15,6.716-15,15v45.167h-45V79.417c0-16.569-13.431-30-30-30s-30,13.431-30,30v22.167H15c-8.284,0-15,6.716-15,15v30   c0,8.284,6.716,15,15,15h482c8.284,0,15-6.716,15-15v-30C512,108.299,505.284,101.583,497,101.583z"/>
	<path d="M497,410.583H15c-8.284,0-15,6.716-15,15v30c0,8.284,6.716,15,15,15h482c8.284,0,15-6.716,15-15v-30   C512,417.299,505.284,410.583,497,410.583z"/>
</g>















</svg>
