<?xml version="1.0" encoding="iso-8859-1"?>
<!-- Generator: Adobe Illustrator 21.0.0, SVG Export Plug-In . SVG Version: 6.00 Build 0)  -->
<svg xmlns="http://www.w3.org/2000/svg" xmlns:xlink="http://www.w3.org/1999/xlink" version="1.1" id="Capa_1" x="0px" y="0px" viewBox="0 0 512 512" style="enable-background:new 0 0 512 512;" xml:space="preserve" width="512" height="512">
<g>
	<path d="M256,120c-74.991,0-136,61.009-136,136s61.009,136,136,136s136-61.009,136-136S330.991,120,256,120z M309.033,181.754   c5.858-5.858,15.355-5.858,21.213,0c5.858,5.858,5.858,15.355,0,21.213c-5.858,5.858-15.355,5.858-21.213,0   C303.175,197.109,303.175,187.612,309.033,181.754z M256,151c8.262,0,15,6.738,15,15s-6.738,15-15,15c-8.262,0-15-6.738-15-15   S247.738,151,256,151z M166,271c-8.284,0-15-6.716-15-15s6.716-15,15-15c8.284,0,15,6.716,15,15S174.284,271,166,271z    M202.967,330.246c-5.858,5.858-15.355,5.858-21.213,0c-5.858-5.858-5.858-15.355,0-21.213c5.858-5.858,15.355-5.858,21.213,0   C208.824,314.891,208.824,324.388,202.967,330.246z M202.967,202.967c-5.858,5.858-15.355,5.858-21.213,0   c-5.858-5.858-5.858-15.355,0-21.213c5.858-5.858,15.355-5.858,21.213,0C208.824,187.612,208.824,197.109,202.967,202.967z    M256,361c-8.284,0-15-6.716-15-15s6.716-15,15-15c8.284,0,15,6.716,15,15S264.284,361,256,361z M256,301   c-24.813,0-45-20.187-45-45s20.187-45,45-45s45,20.187,45,45S280.813,301,256,301z M330.246,330.246   c-5.858,5.858-15.355,5.858-21.213,0c-5.858-5.858-5.858-15.355,0-21.213c5.858-5.858,15.355-5.858,21.213,0   C336.104,314.891,336.104,324.388,330.246,330.246z M361,256c0,8.284-6.716,15-15,15c-8.284,0-15-6.716-15-15s6.716-15,15-15   C354.284,241,361,247.716,361,256z"/>
	<path d="M256,241c-8.271,0-15,6.729-15,15s6.729,15,15,15s15-6.729,15-15S264.271,241,256,241z"/>
	<path d="M493.423,246.097l18.42,18.419c0.093-2.829,0.157-5.665,0.157-8.516c0-29.915-5.175-58.641-14.648-85.349l-48.438-12.979   c-7.993-2.136-12.741-10.347-10.605-18.34c2.136-7.993,10.347-12.741,18.34-10.605l25.141,6.737   c-15.14-28.247-35.424-53.337-59.595-74.015l-48.311,12.945c-7.993,2.136-16.204-2.612-18.34-10.605   c-2.136-7.993,2.612-16.204,10.605-18.34l25.078-6.72c-26.619-16.627-56.492-28.503-88.434-34.428l-35.487,35.487   c-5.857,5.857-15.354,5.857-21.211,0c-5.857-5.857-5.857-15.354,0-21.211l18.42-18.42C261.687,0.064,258.851,0,256,0   c-29.915,0-58.641,5.175-85.349,14.648l-12.978,48.438c-2.136,7.993-10.347,12.741-18.34,10.605   c-7.993-2.136-12.741-10.347-10.605-18.34l6.737-25.141c-28.247,15.14-53.337,35.424-74.015,59.594l12.945,48.311   c2.136,7.993-2.612,16.204-10.605,18.34c-7.993,2.136-16.204-2.612-18.34-10.605l-6.72-25.078   c-16.628,26.619-28.503,56.492-34.428,88.434l35.487,35.487c5.857,5.857,5.857,15.354,0,21.211c-5.857,5.857-15.354,5.857-21.211,0   l-18.42-18.42C0.064,250.312,0,253.148,0,256c0,29.915,5.175,58.64,14.648,85.349l48.438,12.979   c7.993,2.136,12.741,10.347,10.605,18.34c-2.136,7.993-10.347,12.741-18.34,10.605l-25.142-6.736   c15.14,28.247,35.424,53.337,59.594,74.015l48.311-12.945c7.993-2.136,16.204,2.612,18.34,10.605   c2.136,7.993-2.612,16.204-10.605,18.34l-25.079,6.72c26.619,16.627,56.492,28.503,88.434,34.428l35.487-35.487   c5.857-5.857,15.354-5.857,21.211,0c5.857,5.857,5.857,15.354,0,21.211l-18.42,18.42c2.829,0.093,5.666,0.157,8.517,0.157   c29.915,0,58.64-5.175,85.349-14.648l12.979-48.438c2.136-7.993,10.347-12.741,18.34-10.605   c7.993,2.136,12.741,10.347,10.605,18.34l-6.737,25.142c28.247-15.14,53.337-35.424,74.015-59.595l-12.945-48.311   c-2.136-7.993,2.612-16.204,10.605-18.34c7.993-2.135,16.204,2.613,18.34,10.605l6.72,25.078   c16.628-26.619,28.503-56.492,34.428-88.434l-35.487-35.487c-5.857-5.857-5.857-15.354,0-21.211   C478.069,240.239,487.566,240.239,493.423,246.097z M256,422c-91.533,0-166-74.467-166-166S164.467,90,256,90s166,74.467,166,166   S347.533,422,256,422z"/>
</g>















</svg>
