<?xml version="1.0" encoding="iso-8859-1"?>
<!-- Generator: Adobe Illustrator 21.0.0, SVG Export Plug-In . SVG Version: 6.00 Build 0)  -->
<svg xmlns="http://www.w3.org/2000/svg" xmlns:xlink="http://www.w3.org/1999/xlink" version="1.1" id="Capa_1" x="0px" y="0px" viewBox="0 0 512 512" style="enable-background:new 0 0 512 512;" xml:space="preserve" width="512" height="512">
<g>
	<path style="fill-rule:evenodd;clip-rule:evenodd;" d="M0,199.633c0,22.966,18.734,41.7,41.7,41.7h58.785L87.902,228.75   c-5.857-5.857-5.857-15.354,0-21.211c5.857-5.857,15.354-5.857,21.211,0l33.794,33.794h41.578l-12.583-12.583   c-5.857-5.857-5.857-15.354,0-21.211c5.857-5.857,15.354-5.857,21.211,0l33.794,33.794h42.078l-12.583-12.583   c-5.857-5.857-5.857-15.354,0-21.211c5.857-5.857,15.354-5.857,21.211,0l33.794,33.794h42.078l-12.583-12.583   c-5.857-5.857-5.857-15.354,0-21.211c5.857-5.857,15.354-5.857,21.211,0l33.794,33.794h42.078l-12.583-12.583   c-5.857-5.857-5.857-15.354,0-21.211c5.857-5.857,15.354-5.857,21.211,0l32.78,32.78C498.01,236.149,512,219.476,512,199.633v-47.3   H0V199.633z"/>
	<path style="fill-rule:evenodd;clip-rule:evenodd;" d="M470.3,33.334h-38.307l12.831,12.831c5.857,5.857,5.857,15.354,0,21.211   c-5.857,5.857-15.354,5.857-21.211,0l-34.042-34.042h-41.578l12.831,12.831c5.857,5.857,5.857,15.354,0,21.211   c-5.857,5.857-15.354,5.857-21.211,0l-34.042-34.042h-42.078l12.831,12.831c5.857,5.857,5.857,15.354,0,21.211   c-5.857,5.857-15.354,5.857-21.211,0l-34.042-34.042h-42.078l12.831,12.831c5.857,5.857,5.857,15.354,0,21.211   c-5.857,5.857-15.354,5.857-21.211,0l-34.042-34.042H94.493l12.831,12.831c5.857,5.857,5.857,15.354,0,21.211   c-5.857,5.857-15.354,5.857-21.211,0L52.071,33.334H41.7c-22.966,0-41.7,18.734-41.7,41.7v47.3h512v-47.3   C512,52.068,493.266,33.334,470.3,33.334z"/>
	<path style="fill-rule:evenodd;clip-rule:evenodd;" d="M0,436.967c0,22.966,18.734,41.7,41.7,41.7h58.785l-12.583-12.583   c-5.857-5.857-5.857-15.354,0-21.211c5.857-5.857,15.354-5.857,21.211,0l33.794,33.794h41.578l-12.583-12.583   c-5.857-5.857-5.857-15.354,0-21.211c5.857-5.857,15.354-5.857,21.211,0l33.794,33.794h42.078l-12.583-12.583   c-5.857-5.857-5.857-15.354,0-21.211c5.857-5.857,15.354-5.857,21.211,0l33.794,33.794h42.078l-12.583-12.583   c-5.857-5.857-5.857-15.354,0-21.211c5.857-5.857,15.354-5.857,21.211,0l33.794,33.794h42.078l-12.583-12.583   c-5.857-5.857-5.857-15.354,0-21.211c5.857-5.857,15.354-5.857,21.211,0l32.78,32.78C498.01,473.482,512,456.81,512,436.967v-47.3   H0V436.967z"/>
	<path style="fill-rule:evenodd;clip-rule:evenodd;" d="M470.3,270.667h-38.307l12.831,12.831c5.857,5.857,5.857,15.354,0,21.211   c-5.857,5.857-15.354,5.857-21.211,0l-34.042-34.042h-41.578l12.831,12.831c5.857,5.857,5.857,15.354,0,21.211   c-5.857,5.857-15.354,5.857-21.211,0l-34.042-34.042h-42.078l12.831,12.831c5.857,5.857,5.857,15.354,0,21.211   c-5.857,5.857-15.354,5.857-21.211,0l-34.042-34.042h-42.078l12.831,12.831c5.857,5.857,5.857,15.354,0,21.211   c-5.857,5.857-15.354,5.857-21.211,0l-34.042-34.042H94.493l12.831,12.831c5.857,5.857,5.857,15.354,0,21.211   c-5.857,5.857-15.354,5.857-21.211,0l-34.042-34.042H41.7c-22.966,0-41.7,18.734-41.7,41.7v47.3h512v-47.3   C512,289.401,493.266,270.667,470.3,270.667z"/>
</g>















</svg>
