<?xml version="1.0" encoding="iso-8859-1"?>
<!-- Generator: Adobe Illustrator 21.0.0, SVG Export Plug-In . SVG Version: 6.00 Build 0)  -->
<svg xmlns="http://www.w3.org/2000/svg" xmlns:xlink="http://www.w3.org/1999/xlink" version="1.1" id="Capa_1" x="0px" y="0px" viewBox="0 0 512 512" style="enable-background:new 0 0 512 512;" xml:space="preserve" width="512" height="512">
<g>
	<path d="M0.024,41.7v46.668l18.599-18.599c5.857-5.857,15.354-5.857,21.211,0c5.857,5.857,5.857,15.354,0,21.211L0.024,130.791   v41.423l18.599-18.599c5.857-5.857,15.354-5.857,21.211,0c5.857,5.857,5.857,15.354,0,21.211L0.024,214.636v42.382l18.599-18.6   c5.857-5.857,15.354-5.857,21.211,0c5.857,5.857,5.857,15.354,0,21.211L0.024,299.44v41.881l18.599-18.6   c5.857-5.857,15.354-5.857,21.211,0c5.857,5.857,5.857,15.354,0,21.211L0.024,383.744v42.882l18.599-18.6   c5.857-5.857,15.354-5.857,21.211,0c5.857,5.857,5.857,15.354,0,21.211L0.024,469.047v1.253c0,22.966,18.734,41.7,41.7,41.7h47.621   V0H41.723C18.758,0,0.024,18.734,0.024,41.7z"/>
	<path d="M229.212,94.739c-5.857-5.857-5.857-15.354,0-21.211l39.152-39.152C264.883,14.883,247.79,0,227.323,0h-47.979v512h47.979   c22.966,0,41.7-18.734,41.7-41.7v-55.904l-18.6,18.6c-5.857,5.857-15.354,5.857-21.211,0c-5.857-5.857-5.857-15.354,0-21.211   l39.811-39.811V330.55l-18.6,18.6c-5.857,5.857-15.354,5.857-21.211,0c-5.857-5.857-5.857-15.354,0-21.211l39.811-39.811v-42.382   l-18.6,18.6c-5.857,5.857-15.354,5.857-21.211,0c-5.857-5.857-5.857-15.354,0-21.211l39.811-39.811v-41.881l-18.6,18.6   c-5.857,5.857-15.354,5.857-21.211,0c-5.857-5.857-5.857-15.354,0-21.211l39.811-39.811V76.139l-18.6,18.6   C244.566,100.596,235.069,100.596,229.212,94.739z"/>
	<rect x="119.345" width="29.999" height="512"/>
	<path d="M345.524,98.715h151.453c8.284,0,15-6.716,15-15s-6.716-15-15-15H481.64c-3.174-30.118-28.718-53.668-59.663-53.668   s-56.489,23.55-59.663,53.668h-16.79c-8.284,0-15,6.716-15,15S337.239,98.715,345.524,98.715z"/>
	<path d="M361.977,217.047H299v90h167.977c8.284,0,15-6.716,15-15v0V188.725h-120V217.047z"/>
	<path d="M496.977,128.715H345.524c-8.284,0-15,6.716-15,15s6.716,15,15,15h151.453c8.284,0,15-6.716,15-15   S505.261,128.715,496.977,128.715z"/>
</g>















</svg>
