<?xml version="1.0" encoding="iso-8859-1"?>
<!-- Generator: Adobe Illustrator 21.0.0, SVG Export Plug-In . SVG Version: 6.00 Build 0)  -->
<svg xmlns="http://www.w3.org/2000/svg" xmlns:xlink="http://www.w3.org/1999/xlink" version="1.1" id="Capa_1" x="0px" y="0px" viewBox="0 0 512 512" style="enable-background:new 0 0 512 512;" xml:space="preserve" width="512" height="512">
<g>
	<path d="M319,143.931h-76.999v-30.042H257.5c8.284,0,15-6.716,15-15s-6.716-15-15-15H136.501c-8.284,0-15,6.716-15,15   s6.716,15,15,15h15.5v30.042H15c-8.284,0-15,6.716-15,15v82.5c0,3.978,1.58,7.793,4.394,10.606l55.608,55.607v13.286   c0,8.284,6.716,15,15,15H319c8.284,0,15-6.716,15-15v-162C334,150.647,327.284,143.931,319,143.931z M60.002,265.219L30,235.218   v-61.287h30.002V265.219z"/>
	<path d="M491.416,300.247c-5.375-12.21-11.003-23.501-15.848-31.793c-6.264-10.721-12.78-20.344-23.568-20.344   s-17.305,9.623-23.568,20.344c-4.845,8.291-10.474,19.582-15.849,31.793c-6.188,14.06-20.584,48.818-20.584,67.864   c0,33.084,26.916,60,60.001,60c33.084,0,60-26.916,60-60C512,349.065,497.605,314.307,491.416,300.247z"/>
	<path d="M452.004,171.931v-42c0-5.559-3.074-10.662-7.988-13.26c-4.914-2.599-10.863-2.266-15.457,0.864L363.5,161.856v127.047   l85.263-107.659C450.861,178.594,452.004,175.312,452.004,171.931z"/>
</g>















</svg>
