<?xml version="1.0" encoding="iso-8859-1"?>
<!-- Generator: Adobe Illustrator 21.0.0, SVG Export Plug-In . SVG Version: 6.00 Build 0)  -->
<svg xmlns="http://www.w3.org/2000/svg" xmlns:xlink="http://www.w3.org/1999/xlink" version="1.1" id="Capa_1" x="0px" y="0px" viewBox="0 0 511.951 511.951" style="enable-background:new 0 0 511.951 511.951;" xml:space="preserve" width="512" height="512">
<g>
	<path d="M199.555,4.393L4.393,199.555c-5.858,5.858-5.858,15.355,0,21.213l10.483,10.483L231.251,14.877L220.768,4.393   C214.91-1.464,205.413-1.464,199.555,4.393z"/>
	<path d="M152.887,369.261c5.858,5.858,15.355,5.858,21.213,0l33.941-33.941c3.547-3.547,5.085-8.63,4.102-13.548l-5.496-27.483   l87.643-87.643l27.483,5.496c4.918,0.983,10.001-0.556,13.548-4.102l33.941-33.941c5.858-5.858,5.858-15.355,0-21.213   L252.465,36.09L36.09,252.465L152.887,369.261z M186.828,186.829c5.858-5.858,15.355-5.858,21.213,0   c5.858,5.858,5.858,15.355,0,21.213c-5.858,5.858-15.355,5.858-21.213,0C180.97,202.184,180.97,192.686,186.828,186.829z"/>
	<path d="M396.066,396.538c-5.849,5.849-5.848,15.365,0,21.213c5.848,5.848,15.364,5.849,21.213,0   c5.849-5.849,5.848-15.365,0-21.213S401.915,390.689,396.066,396.538z"/>
	<path d="M371.725,308.085l-68.466-68.466l-63.64,63.64l68.467,68.467c-13.48,37.835-4.17,80.683,24.669,109.521   c40.939,40.939,107.553,40.94,148.492,0s40.939-107.553,0-148.492C452.408,303.915,409.559,294.605,371.725,308.085z    M438.493,438.964c-17.546,17.546-46.094,17.545-63.64,0s-17.546-46.094,0-63.64s46.094-17.545,63.64,0   C456.038,392.87,456.038,421.418,438.493,438.964z"/>
</g>















</svg>
