<?xml version="1.0" encoding="iso-8859-1"?>
<!-- Generator: Adobe Illustrator 21.0.0, SVG Export Plug-In . SVG Version: 6.00 Build 0)  -->
<svg xmlns="http://www.w3.org/2000/svg" xmlns:xlink="http://www.w3.org/1999/xlink" version="1.1" id="Capa_1" x="0px" y="0px" viewBox="0 0 512 512" style="enable-background:new 0 0 512 512;" xml:space="preserve" width="512" height="512">
<g>
	<path d="M256,125c-74.991,0-136,61.009-136,136c0,74.991,61.009,136,136,136s136-61.009,136-136C392,186.009,330.991,125,256,125z    M309.033,186.754c5.858-5.858,15.355-5.858,21.213,0c5.858,5.858,5.858,15.355,0,21.213c-5.858,5.858-15.355,5.858-21.213,0   C303.175,202.109,303.175,192.612,309.033,186.754z M256,156c8.262,0,15,6.738,15,15s-6.738,15-15,15c-8.262,0-15-6.738-15-15   S247.739,156,256,156z M166,276c-8.284,0-15-6.716-15-15c0-8.284,6.716-15,15-15c8.284,0,15,6.716,15,15   C181,269.284,174.284,276,166,276z M202.967,335.246c-5.858,5.858-15.355,5.858-21.213,0c-5.858-5.858-5.858-15.355,0-21.213   s15.355-5.858,21.213,0C208.825,319.891,208.825,329.388,202.967,335.246z M202.967,207.967c-5.858,5.858-15.355,5.858-21.213,0   c-5.858-5.858-5.858-15.355,0-21.213s15.355-5.858,21.213,0C208.825,192.612,208.825,202.109,202.967,207.967z M256,366   c-8.284,0-15-6.716-15-15c0-8.284,6.716-15,15-15c8.284,0,15,6.716,15,15C271,359.284,264.284,366,256,366z M256,306   c-24.813,0-45-20.187-45-45s20.187-45,45-45s45,20.187,45,45S280.813,306,256,306z M330.246,335.246   c-5.858,5.858-15.355,5.858-21.213,0c-5.858-5.858-5.858-15.355,0-21.213s15.355-5.858,21.213,0   C336.104,319.891,336.104,329.388,330.246,335.246z M361,261c0,8.284-6.716,15-15,15c-8.284,0-15-6.716-15-15   c0-8.284,6.716-15,15-15C354.284,246,361,252.716,361,261z"/>
	<path d="M455.43,424.167h-0.001h-0.004h-6.399l-11.419-42.616c-2.136-7.993,2.612-16.204,10.605-18.34   c7.993-2.136,16.204,2.612,18.34,10.605l6.753,25.2c16.629-26.634,28.492-56.544,34.409-88.542l-35.501-35.5   c-5.857-5.857-5.857-15.354,0-21.211c5.857-5.857,15.354-5.857,21.211,0l18.422,18.422c0.093-2.829,0.155-5.667,0.155-8.519   c0-29.924-5.152-58.64-14.588-85.333l-48.498-12.995c-7.993-2.136-12.741-10.347-10.605-18.34   c2.136-7.993,10.347-12.741,18.34-10.605l25.253,6.767c-11.951-22.356-27.11-42.738-44.884-60.511   c-4.714-4.714-9.619-9.234-14.687-13.57L373.884,82.06c-7.993,2.136-16.204-2.612-18.34-10.605   c-2.136-7.993,2.612-16.204,10.605-18.34l25.208-6.754c-26.637-16.627-56.546-28.495-88.547-34.409l-35.503,35.503   c-5.857,5.857-15.354,5.857-21.211,0c-5.857-5.857-5.857-15.354,0-21.211l18.421-18.421c-2.829-0.093-5.665-0.156-8.517-0.156   c-29.924,0-58.64,5.152-85.333,14.588l-12.995,48.498c-2.136,7.993-10.347,12.741-18.34,10.605   c-7.993-2.136-12.741-10.347-10.605-18.34l6.767-25.253c-22.356,11.951-42.738,27.11-60.512,44.884   c-4.713,4.713-9.233,9.619-13.569,14.687l12.981,48.447c2.136,7.993-2.612,16.204-10.605,18.34   c-7.993,2.136-16.204-2.612-18.34-10.605l-6.754-25.208c-16.627,26.637-28.495,56.546-34.409,88.547l35.503,35.503   c5.857,5.857,5.857,15.354,0,21.211c-5.857,5.857-15.354,5.857-21.211,0L0.156,255.149C0.064,257.978,0,260.815,0,263.667   c0,29.924,5.148,58.642,14.588,85.333l48.499,12.995c7.993,2.136,12.741,10.347,10.605,18.34   c-2.136,7.993-10.347,12.741-18.34,10.605l-25.25-6.766c7.583,14.18,16.459,27.564,26.474,39.993h-0.003   c-31.243,0-56.57,25.327-56.57,56.57v23.597H512v-23.597C512,449.494,486.673,424.167,455.43,424.167z M256,427   c-91.533,0-166-74.467-166-166c0-91.532,74.467-166,166-166s166,74.467,166,166C422,352.532,347.533,427,256,427z"/>
	<path d="M256,246c-8.271,0-15,6.729-15,15s6.729,15,15,15s15-6.729,15-15S264.271,246,256,246z"/>
</g>















</svg>
