<?xml version="1.0" encoding="iso-8859-1"?>
<!-- Generator: Adobe Illustrator 21.0.0, SVG Export Plug-In . SVG Version: 6.00 Build 0)  -->
<svg xmlns="http://www.w3.org/2000/svg" xmlns:xlink="http://www.w3.org/1999/xlink" version="1.1" id="Capa_1" x="0px" y="0px" viewBox="0 0 512 512" style="enable-background:new 0 0 512 512;" xml:space="preserve" width="512" height="512">
<g>
	<path d="M256,0C114.615,0,0,114.615,0,256s114.615,256,256,256s256-114.615,256-256S397.385,0,256,0z M256,69   c87.762,0,161.39,60.462,181.536,142h-15.242c-25.323,0-46.822-6.707-67.657-21.107C328.612,171.906,293.582,162,256,162   s-72.612,9.906-98.636,27.893C136.528,204.293,115.03,211,89.707,211H74.464C94.61,129.462,168.238,69,256,69z M179,259.5   c0-26.509,33.103-46.5,77-46.5s77,19.991,77,46.5S299.897,306,256,306S179,286.009,179,259.5z M74.464,301h51.063   c8.219,23.711,23.008,45.154,42.435,61.265c23.806,19.742,38.12,45.436,41.976,75.012C143.319,420.4,90.961,367.769,74.464,301z    M302.062,437.277c3.855-29.575,18.17-55.27,41.976-75.013c19.426-16.11,34.215-37.553,42.435-61.264h51.063   C421.039,367.769,368.681,420.401,302.062,437.277z"/>
	<path d="M256,243c-30.84,0-47,12.259-47,16.5s16.16,16.5,47,16.5s47-12.259,47-16.5S286.84,243,256,243z"/>
</g>















</svg>
