<?xml version="1.0" encoding="iso-8859-1"?>
<!-- Generator: Adobe Illustrator 21.0.0, SVG Export Plug-In . SVG Version: 6.00 Build 0)  -->
<svg xmlns="http://www.w3.org/2000/svg" xmlns:xlink="http://www.w3.org/1999/xlink" version="1.1" id="Capa_1" x="0px" y="0px" viewBox="0 0 512 512" style="enable-background:new 0 0 512 512;" xml:space="preserve" width="512" height="512">
<g>
	<path d="M256.042,314c8.271,0,15-6.729,15-15s-6.73-15-15-15c-8.271,0-15,6.729-15,15S247.77,314,256.042,314z"/>
	<path d="M437.02,117.981C388.667,69.628,324.379,43,255.998,43c-67.979,0.001-132.949,26.912-181.018,74.981   C26.629,166.334,0,230.62,0,299c0,60.171,21.306,118.646,59.991,164.654c2.851,3.389,7.053,5.346,11.481,5.346h80.586   c1.211,0,1.637-1.59,0.601-2.217c-0.012-0.007-0.023-0.014-0.033-0.02c-28.08-17.336-51.559-41.641-67.897-70.287   C67.87,366.919,58.958,333.213,58.958,299c0-36.324,9.967-71.728,28.932-102.669c16.938-27.634,40.694-50.95,68.644-67.363   c21.913-12.868,46.282-21.422,71.44-25.019c9.279-1.327,18.652-1.991,28.025-1.991c84.158,0,162.814,57.825,188.036,138.092   c5.985,19.046,9.006,38.988,9.006,58.949c0,34.212-8.911,67.919-25.77,97.476c-16.339,28.646-39.817,52.951-67.897,70.287   l-0.034,0.021c-1.03,0.63-0.584,2.216,0.623,2.216h80.563c4.429,0,8.631-1.957,11.48-5.346C490.694,417.646,512,359.171,512,299   C512,230.62,485.371,166.333,437.02,117.981z"/>
	<path d="M137.926,384.49l-18.603,10.741c12.04,17.05,27.378,31.941,45.536,43.769h182.283   c18.158-11.828,33.495-26.719,45.536-43.769l-18.604-10.741c-7.174-4.142-9.633-13.316-5.49-20.49   c4.142-7.175,13.315-9.633,20.49-5.49l18.619,10.75c7.953-17.207,12.967-35.851,14.679-55.259H401c-8.284,0-15-6.716-15-15   s6.716-15,15-15h21.361c-1.749-19.551-6.877-38.141-14.801-55.183l-18.487,10.673c-2.362,1.364-4.941,2.012-7.486,2.012   c-5.184,0-10.226-2.69-13.004-7.502c-4.143-7.174-1.684-16.348,5.49-20.49l18.45-10.652   c-11.055-15.652-24.729-29.326-40.381-40.381l-10.652,18.449c-2.778,4.812-7.82,7.502-13.004,7.502   c-2.545,0-5.124-0.648-7.486-2.012c-7.175-4.142-9.633-13.316-5.49-20.49l10.673-18.486c-17.042-7.923-35.632-13.052-55.183-14.8   V154c0,8.284-6.716,15-15,15s-15-6.716-15-15v-21.36c-19.551,1.748-38.141,6.877-55.183,14.8l10.673,18.486   c4.142,7.174,1.684,16.348-5.49,20.49c-2.362,1.364-4.941,2.012-7.486,2.012c-5.185,0-10.226-2.69-13.004-7.502l-10.652-18.449   c-15.652,11.055-29.326,24.729-40.381,40.381l18.449,10.652c7.174,4.142,9.632,13.316,5.49,20.49   c-2.778,4.812-7.82,7.502-13.004,7.502c-2.545,0-5.124-0.648-7.486-2.012l-18.486-10.673C96.517,245.859,91.388,264.449,89.64,284   H111c8.284,0,15,6.716,15,15s-6.716,15-15,15H89.629c1.713,19.408,6.726,38.052,14.679,55.259l18.618-10.749   c7.175-4.143,16.348-1.685,20.49,5.49C147.559,371.174,145.101,380.348,137.926,384.49z M256.042,253.999   c6.928,0,13.493,1.577,19.361,4.385l44.761-44.762c5.857-5.858,15.355-5.858,21.213,0c5.857,5.858,5.858,15.355,0,21.213   l-44.746,44.746c2.825,5.882,4.411,12.468,4.411,19.418c0,24.813-20.188,45-45,45c-24.813,0-45-20.187-45-45   S231.228,253.999,256.042,253.999z M213,378.999h86c8.284,0,15,6.716,15,15s-6.716,15-15,15h-86c-8.284,0-15-6.716-15-15   S204.716,378.999,213,378.999z"/>
</g>















</svg>
