<?xml version="1.0" encoding="iso-8859-1"?>
<!-- Generator: Adobe Illustrator 21.0.0, SVG Export Plug-In . SVG Version: 6.00 Build 0)  -->
<svg xmlns="http://www.w3.org/2000/svg" xmlns:xlink="http://www.w3.org/1999/xlink" version="1.1" id="Capa_1" x="0px" y="0px" viewBox="0 0 512 512" style="enable-background:new 0 0 512 512;" xml:space="preserve" width="512" height="512">
<g>
	<path d="M15,78.5h45v88h30v-88h150v88h30v-88h151v88h30v-88h46c8.284,0,15-6.716,15-15s-6.716-15-15-15H15c-8.284,0-15,6.716-15,15   S6.716,78.5,15,78.5z"/>
	<polygon points="25.235,390.5 124.489,390.5 74.976,339.934  "/>
	<path d="M135,196.5H15c-8.284,0-15,6.716-15,15v75.53l64.309-65.353c2.819-2.865,6.672-4.479,10.691-4.479c0.007,0,0.014,0,0.021,0   c4.027,0.005,7.883,1.63,10.699,4.508L150,287.386V211.5C150,203.216,143.284,196.5,135,196.5z"/>
	<path d="M0,329.802v43.572L64.307,308c2.823-2.871,6.681-4.483,10.711-4.481c4.026,0.005,7.883,1.628,10.7,4.505L150,373.673   v-43.397l-75.029-76.662L0,329.802z"/>
	<polygon points="390.202,463.5 481.495,463.5 436.048,417.127  "/>
	<path d="M363.273,457.813c-0.427-0.538-0.826-1.1-1.178-1.695C362.446,456.713,362.846,457.275,363.273,457.813z"/>
	<path d="M363.273,457.813c0.582,0.733,1.222,1.417,1.93,2.029C364.496,459.23,363.855,458.546,363.273,457.813z"/>
	<path d="M511.704,451.464l-0.015-0.015c-0.041,0.202-0.081,0.404-0.13,0.603C511.607,451.856,511.664,451.663,511.704,451.464z"/>
	<path d="M360,407.749V448.5c0,0.899,0.093,1.775,0.245,2.631l65.183-65.932c2.818-2.85,6.659-4.454,10.667-4.454   c0.011,0,0.021,0,0.032,0c4.02,0.009,7.867,1.63,10.681,4.501l64.882,66.204c0.195-0.954,0.311-1.937,0.311-2.949v-40.524   l-75.931-77.189L360,407.749z"/>
	<path d="M360,321.868v43.205l65.427-66.194c2.817-2.851,6.66-4.456,10.668-4.456c0.006,0,0.012,0,0.018,0   c4.015,0.005,7.86,1.619,10.676,4.481L512,365.197v-43.58l-75.901-77.125L360,321.868z"/>
	<path d="M497,196.5H375c-8.284,0-15,6.716-15,15v67.584l65.4-66.499c2.819-2.866,6.671-4.481,10.691-4.482   c4.021,0,7.874,1.613,10.694,4.479L512,278.847V211.5C512,203.216,505.284,196.5,497,196.5z"/>
	<path d="M179.5,329.802v43.572L243.807,308c2.823-2.871,6.681-4.483,10.711-4.481c4.026,0.005,7.883,1.628,10.7,4.505   l64.282,65.649v-43.397l-75.029-76.662L179.5,329.802z"/>
	<polygon points="204.735,390.5 303.989,390.5 254.476,339.934  "/>
	<path d="M314.5,196.5h-120c-8.284,0-15,6.716-15,15v75.53l64.309-65.353c2.819-2.865,6.672-4.479,10.691-4.479   c0.007,0,0.014,0,0.021,0c4.027,0.005,7.883,1.63,10.699,4.508l64.28,65.679V211.5C329.5,203.216,322.784,196.5,314.5,196.5z"/>
</g>















</svg>
