<?xml version="1.0" encoding="iso-8859-1"?>
<!-- Generator: Adobe Illustrator 21.0.0, SVG Export Plug-In . SVG Version: 6.00 Build 0)  -->
<svg xmlns="http://www.w3.org/2000/svg" xmlns:xlink="http://www.w3.org/1999/xlink" version="1.1" id="Capa_1" x="0px" y="0px" viewBox="0 0 512.053 512.053" style="enable-background:new 0 0 512.053 512.053;" xml:space="preserve" width="512" height="512">
<g>
	<path d="M256.088,116.561c8.984,0,44.557,1.003,88.67,5.462c40.57,4.101,74.83,9.736,102.278,16.807l-23.029-43.807   c-13.325-25.335-38.131-40.461-66.356-40.461h-203.25c-28.204,0-53.001,15.11-66.333,40.418   c-7.771,14.754-15.537,29.51-23.299,44.271c20.189-5.807,43.329-10.622,69.193-14.365   C171.586,119.439,213.816,116.561,256.088,116.561z"/>
	<path d="M437.021,370.445c36.205,0,66.513-25.807,73.487-59.991H385.057c-4.001,0-7.836-1.599-10.653-4.44   c-2.817-2.842-4.382-6.691-4.347-10.692c0.167-18.982,7.535-37.74,20.216-51.463c13.946-15.093,33.402-23.405,54.783-23.405h62.89   c-7.291-21.22-23.867-38.188-46.255-45.972c-66.342-23.067-184.992-27.921-205.603-27.921c-83.275,0-161.333,11.298-208.805,30.221   c-20.619,8.22-35.701,24.014-42.76,43.671h62.533c21.382,0,40.837,8.312,54.784,23.405c12.68,13.723,20.048,32.48,20.216,51.462   c0.035,4.001-1.53,7.851-4.346,10.692c-2.817,2.842-6.652,4.44-10.653,4.44H1.531c2.898,14.269,9.915,27.404,20.474,37.971   c14.19,14.2,33.018,22.02,53.017,22.02h97.035v-89c0-24.813,20.187-45,45-45h78c24.813,0,45,20.187,45,45v89H437.021z"/>
	<path d="M67.057,250.454H0.054l-0.021,30h109.399C103.815,264.175,89.31,250.454,67.057,250.454z"/>
	<path d="M445.056,250.454c-22.255,0-36.759,13.72-42.375,30h109.351l0.021-30H445.056z"/>
	<path d="M295.057,266.445h-78c-8.271,0-15,6.729-15,15v89h108v-89C310.057,273.174,303.328,266.445,295.057,266.445z"/>
	<path d="M0.783,369.63c-0.262-0.262-0.515-0.529-0.774-0.793L0,412.388c-0.006,24.813,20.177,45.004,44.99,45.01l60.088,0.013   c24.813,0.005,45.004-20.177,45.01-44.99l0.003-11.977h-75.07C47.005,400.445,20.64,389.501,0.783,369.63z"/>
	<path d="M361.915,400.445l-0.003,12.024c-0.006,24.813,20.177,45.005,44.99,45.01l60.088,0.013   c24.813,0.006,45.004-20.177,45.01-44.99l0.01-43.651c-19.074,19.481-45.646,31.594-74.989,31.594H361.915z"/>
</g>















</svg>
