<?xml version="1.0" encoding="iso-8859-1"?>
<!-- Generator: Adobe Illustrator 21.0.0, SVG Export Plug-In . SVG Version: 6.00 Build 0)  -->
<svg xmlns="http://www.w3.org/2000/svg" xmlns:xlink="http://www.w3.org/1999/xlink" version="1.1" id="Capa_1" x="0px" y="0px" viewBox="0 0 511.99 511.99" style="enable-background:new 0 0 511.99 511.99;" xml:space="preserve" width="512" height="512">
<g>
	<path d="M478.239,115.053h-50.69c-16.569,0-30-13.431-30-30v0c0-16.569,13.431-30,30-30h50.69c7.82,0,12.654-8.597,8.527-15.24   C471.91,15.896,445.629,0,415.674,0c-30.035,0-56.371,15.988-71.209,40.011H167.525C152.687,15.988,126.351,0,96.316,0   C66.361,0,40.081,15.896,25.224,39.813c-4.127,6.643,0.707,15.24,8.527,15.24h50.69c16.569,0,30,13.431,30,30v0   c0,16.568-13.431,30-30,30h-50.69c-7.82,0-12.653,8.597-8.527,15.24c14.857,23.916,41.137,39.813,71.092,39.813   c30.035,0,56.371-15.989,71.209-40.011h176.939c14.838,24.023,41.174,40.011,71.209,40.011c29.955,0,56.235-15.896,71.092-39.813   C490.893,123.65,486.059,115.053,478.239,115.053z"/>
	<path d="M55.023,360.826l-0.027,18.096c-0.024,16.393,6.379,31.847,18.031,43.517c11.731,11.748,27.319,18.218,43.895,18.218   h283.12c34.096,0,61.876-27.645,61.926-61.625l0.028-19.04c0.039-26.652-16.294-49.532-41.61-58.289   c-52.309-18.092-145.643-21.898-161.852-21.898c-65.514,0-127.006,8.875-164.491,23.739   C70.013,313.072,55.062,335.021,55.023,360.826z M386.996,350.656c8.262,0,15,6.738,15,15c0,8.262-6.738,15-15,15   c-8.262,0-15-6.738-15-15C371.996,357.395,378.734,350.656,386.996,350.656z M189.995,350.656h137c8.284,0,15,6.716,15,15   s-6.716,15-15,15h-137c-8.284,0-15-6.716-15-15S181.711,350.656,189.995,350.656z M129.996,350.705c8.262,0,15,6.738,15,15   c0,8.262-6.738,15-15,15c-8.262,0-15-6.738-15-15C114.996,357.444,121.734,350.705,129.996,350.705z"/>
	<path d="M328.929,254.121c32.168,3.24,59.418,7.707,81.354,13.321c-9.991-18.986-18.152-34.498-18.152-34.498   c-10.962-20.843-31.379-33.287-54.616-33.287H179.213c-23.221,0-43.631,12.431-54.598,33.251   c-2.331,4.426-9.808,18.641-18.373,34.929c16.178-4.626,34.654-8.457,55.251-11.429c29.932-4.32,63.488-6.603,97.042-6.603   C269.185,249.805,297.715,250.977,328.929,254.121z"/>
	<path d="M54.996,446.686v27.82c0,20.668,16.815,37.483,37.483,37.483h45.034c20.668,0,37.483-16.815,37.483-37.483v-3.85h-58.074   C93.802,470.657,71.983,462.175,54.996,446.686z"/>
	<path d="M341.996,470.657v3.85c0,20.668,16.815,37.483,37.483,37.483h45.034c20.668,0,37.483-16.815,37.483-37.483v-27.885   c-16.358,14.919-38.115,24.035-61.954,24.035H341.996z"/>
</g>















</svg>
