<?xml version="1.0" encoding="iso-8859-1"?>
<!-- Generator: Adobe Illustrator 21.0.0, SVG Export Plug-In . SVG Version: 6.00 Build 0)  -->
<svg xmlns="http://www.w3.org/2000/svg" xmlns:xlink="http://www.w3.org/1999/xlink" version="1.1" id="Capa_1" x="0px" y="0px" viewBox="0 0 512 512" style="enable-background:new 0 0 512 512;" xml:space="preserve" width="512" height="512">
<g>
	<path d="M507.607,63.396L448.604,4.394C445.792,1.581,441.976,0,437.998,0H74.003c-3.978,0-7.793,1.581-10.606,4.394L4.394,63.396   C1.581,66.209,0,70.024,0,74.003V75c0,0.007,0.001,0.013,0.001,0.019v361.767c0,8.284,6.716,15,15,15s15-6.716,15-15V152.5h452   v284.287c0,8.284,6.716,15,15,15s15-6.716,15-15V75v-0.998C512,70.024,510.42,66.209,507.607,63.396z M482,121.59h-452v-31.17h452   V121.59z"/>
	<path d="M411.825,313.111c-50.374-18.145-140.19-21.962-155.787-21.962c-63.047,0-122.249,8.904-158.363,23.818   c-23.185,9.574-37.61,31.493-37.647,57.203l-0.026,18.096c-0.024,16.752,6.421,32.446,18.148,44.19   C89.447,445.769,104.331,452,120.06,452h271.854c33.068,0,60.011-27.645,60.059-61.626L452,371.335   C452.037,344.77,436.267,321.915,411.825,313.111z M135,392.049c-8.262,0-15-6.738-15-15c0-8.262,6.738-15,15-15s15,6.738,15,15   C150,385.311,143.262,392.049,135,392.049z M317.006,392H195.01c-8.284,0-15-6.716-15-15s6.716-15,15-15h121.997   c8.284,0,15,6.716,15,15S325.291,392,317.006,392z M377,392c-8.262,0-15-6.738-15-15s6.738-15,15-15c8.262,0,15,6.738,15,15   S385.262,392,377,392z"/>
	<path d="M408.75,280.615c-10.424-19.81-19.115-36.329-19.115-36.329C378.673,223.444,358.256,211,335.019,211H176.718   c-23.22,0-43.631,12.43-54.599,33.251c-2.428,4.61-10.44,19.843-19.45,36.976c17.082-5.532,37.052-10.035,59.624-13.43   c28.925-4.351,61.341-6.65,93.743-6.65C274.349,261.148,353.984,264.743,408.75,280.615z"/>
	<path d="M60,458.593v15.924C60,495.185,75.181,512,93.839,512h40.655c16.346,0,30.021-12.905,33.16-30H120.06   C97.719,482,76.556,473.717,60,458.593z"/>
	<path d="M344.013,482c3.139,17.095,16.814,30,33.16,30h40.655c18.659,0,33.839-16.815,33.839-37.483v-15.69   C435.753,473.233,414.816,482,391.915,482H344.013z"/>
</g>















</svg>
