<?xml version="1.0" encoding="iso-8859-1"?>
<!-- Generator: Adobe Illustrator 21.0.0, SVG Export Plug-In . SVG Version: 6.00 Build 0)  -->
<svg xmlns="http://www.w3.org/2000/svg" xmlns:xlink="http://www.w3.org/1999/xlink" version="1.1" id="Capa_1" x="0px" y="0px" viewBox="0 0 512.034 512.034" style="enable-background:new 0 0 512.034 512.034;" xml:space="preserve" width="512" height="512">
<g>
	<path d="M67.057,250.282H0.054l-0.021,30h109.399C103.815,264.003,89.31,250.282,67.057,250.282z"/>
	<path d="M0.783,369.457c-0.262-0.262-0.515-0.529-0.774-0.793L0,412.216c-0.005,24.813,20.177,45.004,44.99,45.01l60.088,0.013   c24.813,0.005,45.005-20.177,45.01-44.99l0.003-11.977h-75.07C47.005,400.273,20.64,389.329,0.783,369.457z"/>
	<path d="M202.057,281.273v89h29.978v-104h-14.978C208.786,266.273,202.057,273.002,202.057,281.273z"/>
	<path d="M497.989,147.645h-7.788v17c0,24.813-20.187,45-45,45H328.867c-24.813,0-45-20.187-45-45v-17h-7.788   c-7.757,0-14.045,6.716-14.045,15v280c0,8.284,6.288,15,14.045,15h221.91c7.757,0,14.045-6.716,14.045-15v-280   C512.034,154.361,505.746,147.645,497.989,147.645z M371.986,376.543l-28.375,28.375c-2.929,2.929-6.768,4.394-10.606,4.394   s-7.678-1.464-10.606-4.394l-15-15c-5.858-5.858-5.858-15.355,0-21.213c5.857-5.858,15.355-5.858,21.213,0l4.394,4.393   l17.769-17.768c5.857-5.858,15.355-5.858,21.213,0C377.844,361.188,377.844,370.685,371.986,376.543z M371.986,288.918   l-28.375,28.375c-2.929,2.929-6.768,4.394-10.606,4.394s-7.678-1.464-10.606-4.394l-15-15c-5.858-5.858-5.858-15.355,0-21.213   c5.857-5.858,15.355-5.858,21.213,0l4.394,4.393l17.769-17.768c5.857-5.858,15.355-5.858,21.213,0   C377.844,273.563,377.844,283.06,371.986,288.918z M456.064,395.124h-35.56c-8.284,0-15-6.716-15-15s6.716-15,15-15h35.56   c8.284,0,15,6.716,15,15S464.348,395.124,456.064,395.124z M456.064,307.499h-35.56c-8.284,0-15-6.716-15-15s6.716-15,15-15h35.56   c8.284,0,15,6.716,15,15S464.348,307.499,456.064,307.499z"/>
	<path d="M4.524,220.282h62.533c21.382,0,40.837,8.312,54.784,23.405c12.68,13.723,20.048,32.48,20.216,51.462   c0.035,4.001-1.53,7.851-4.346,10.692c-2.817,2.842-6.652,4.44-10.653,4.44H1.531c2.898,14.269,9.915,27.404,20.474,37.971   c14.19,14.2,33.019,22.02,53.017,22.02h97.035v-89c0-24.813,20.187-45,45-45h14.978v-89.565   c-74.07,1.948-141.882,12.815-184.751,29.903C26.665,184.83,11.582,200.624,4.524,220.282z"/>
	<path d="M328.867,86.645h90.172c-14.03-20.357-36.362-32.256-61.388-32.256h-203.25c-28.204,0-53.001,15.11-66.333,40.418   c-7.771,14.754-15.537,29.51-23.299,44.271c20.189-5.807,43.329-10.622,69.193-14.365c37.624-5.445,79.854-8.324,122.126-8.324   c4.387,0,15.137,0.242,30.105,1.006C292.169,99.548,309.034,86.645,328.867,86.645z"/>
	<path d="M313.867,131.645v33c0,8.284,6.716,15,15,15h116.334c8.284,0,15-6.716,15-15v-33c0-8.284-6.716-15-15-15H328.867   C320.583,116.645,313.867,123.361,313.867,131.645z"/>
</g>















</svg>
