<?xml version="1.0" encoding="iso-8859-1"?>
<!-- Generator: Adobe Illustrator 21.0.0, SVG Export Plug-In . SVG Version: 6.00 Build 0)  -->
<svg xmlns="http://www.w3.org/2000/svg" xmlns:xlink="http://www.w3.org/1999/xlink" version="1.1" id="Capa_1" x="0px" y="0px" viewBox="0 0 512.072 512.072" style="enable-background:new 0 0 512.072 512.072;" xml:space="preserve" width="512" height="512">
<g>
	<path d="M0,357.031c0,8.284,6.716,15,15,15h165c-0.003,0-0.006,0-0.01,0h152.021c-0.003,0-0.006,0-0.01,0H497   c8.284,0,15-6.716,15-15v-45H0V357.031z"/>
	<path d="M163,183.043c-8.271,0-15,6.729-15,15s6.729,15,15,15c8.271,0,15-6.729,15-15S171.271,183.043,163,183.043z"/>
	<path d="M343.401,183.043c-8.271,0-15,6.729-15,15s6.729,15,15,15s15-6.729,15-15S351.672,183.043,343.401,183.043z"/>
	<polygon points="260.292,69.02 154.174,69.02 123.174,100.02 291.293,100.02  "/>
	<path d="M352,130.02H103v50h18.78c6.964-15.864,22.815-26.976,41.221-26.976c18.406,0,34.256,11.112,41.22,26.976h97.96   c6.964-15.864,22.815-26.976,41.22-26.976s34.257,11.112,41.22,26.976h23.951C405.112,151.879,381.061,130.02,352,130.02z"/>
	<path d="M497.072,0.041h-482c-8.284,0-15,6.716-15,15L0,278.969h512l0.072-263.928C512.072,6.757,505.357,0.041,497.072,0.041z    M439,195.02c0,8.284-6.716,15-15,15h-37.229c-5.258,19.016-22.703,33.024-43.369,33.024s-38.111-14.008-43.369-33.024h-93.663   c-5.258,19.016-22.703,33.024-43.369,33.024c-20.666,0-38.112-14.008-43.37-33.024H88c-8.284,0-15-6.716-15-15v-80   c0-4.52,2.224-9.476,4.621-11.873l59.733-59.733c2.813-2.813,6.628-4.394,10.606-4.394h118.545c3.978,0,7.793,1.581,10.606,4.394   c0,0,56.07,56.137,56.439,56.606H352c47.972,0,87,39.028,87,87V195.02z"/>
	<path d="M347.001,423.315v-21.283H165v21.338c-17.075,3.097-32.581,11.493-44.682,24.396C106.969,461.999,99,480.416,99,497.031   c0,8.284,6.716,15,15,15h284c8.284,0,15-6.716,15-15C413,464.691,387.05,430.31,347.001,423.315z"/>
</g>















</svg>
