<?xml version="1.0" encoding="iso-8859-1"?>
<!-- Generator: Adobe Illustrator 21.0.0, SVG Export Plug-In . SVG Version: 6.00 Build 0)  -->
<svg xmlns="http://www.w3.org/2000/svg" xmlns:xlink="http://www.w3.org/1999/xlink" version="1.1" id="Capa_1" x="0px" y="0px" viewBox="0 0 512.008 512.008" style="enable-background:new 0 0 512.008 512.008;" xml:space="preserve" width="512" height="512">
<g>
	<path d="M251.724,365.171c-8.95,0-16.231,7.281-16.231,16.23s7.281,16.231,16.231,16.231s16.23-7.281,16.23-16.231   S260.674,365.171,251.724,365.171z"/>
	<path d="M251.724,281.122c-55.295,0-100.28,44.985-100.28,100.28c0,55.295,44.986,100.28,100.28,100.28   c55.295,0,100.28-44.986,100.28-100.28C352.004,326.107,307.019,281.122,251.724,281.122z M251.724,427.633   c-25.492,0-46.231-20.739-46.231-46.231s20.739-46.23,46.231-46.23s46.23,20.739,46.23,46.23S277.216,427.633,251.724,427.633z"/>
	<path d="M104.238,231.4v-33.453c-34.422,11.965-63.365,35.738-81.95,66.453h48.95C89.434,264.4,104.238,249.596,104.238,231.4z"/>
	<path d="M191.332,159.4h42.426L109.079,34.72c-5.857-5.858-15.355-5.858-21.213,0c-5.858,5.858-5.858,15.355,0,21.213   L191.332,159.4z"/>
	<path d="M507.615,193.794c-2.814-2.814-6.629-4.394-10.607-4.394H155.003c-7.041,0-13.97,0.481-20.765,1.395V231.4   c0,34.738-28.262,63-63,63H8.278C2.915,310.094,0,326.914,0,344.402V379.4c0,8.284,6.716,15,15,15h107.091   c-0.426-4.276-0.647-8.612-0.647-12.999c0-71.836,58.444-130.28,130.28-130.28c71.836,0,130.28,58.443,130.28,130.28   c0,4.387-0.221,8.722-0.647,12.999h115.63c8.284,0,14.999-6.715,15-14.998l0.021-175   C512.008,200.423,510.428,196.607,507.615,193.794z"/>
	<path d="M512,62.397c0-8.284-6.716-15-15-15H395.873c-3.978,0-7.793,1.581-10.606,4.394L277.657,159.4l234.343,0V62.397z"/>
</g>















</svg>
