<?xml version="1.0" encoding="iso-8859-1"?>
<!-- Generator: Adobe Illustrator 21.0.0, SVG Export Plug-In . SVG Version: 6.00 Build 0)  -->
<svg xmlns="http://www.w3.org/2000/svg" xmlns:xlink="http://www.w3.org/1999/xlink" version="1.1" id="Capa_1" x="0px" y="0px" viewBox="0 0 512 512" style="enable-background:new 0 0 512 512;" xml:space="preserve" width="512" height="512">
<g>
	<path d="M319.544,4.492C316.724,1.619,312.866,0,308.84,0h-91.341v70h166.348L319.544,4.492z"/>
	<path d="M187.499,0h-64.896c-3.997,0-7.829,1.595-10.645,4.432L46.864,70h140.635V0z"/>
	<path d="M167.667,222.489c0-30.099-24.487-54.586-54.586-54.586s-54.586,24.487-54.586,54.586   c0,30.099,24.487,54.587,54.586,54.587S167.667,252.588,167.667,222.489z M98.081,222.489c0-8.271,6.729-15,15-15s15,6.729,15,15   c0,8.271-6.729,15-15,15S98.081,230.76,98.081,222.489z"/>
	<path d="M430.997,100H45.003C20.188,100,0,120.171,0,144.964v35.072c0,18.977,11.834,35.234,28.51,41.823   c0.342-46.35,38.141-83.956,84.57-83.956c46.641,0,84.586,37.945,84.586,84.586c0,0.842-0.039,1.675-0.064,2.511h108.955   c-0.025-0.836-0.064-1.669-0.064-2.511c0-46.641,37.945-84.586,84.586-84.586s84.586,37.945,84.586,84.586   c0,0.842-0.039,1.675-0.064,2.511H497c8.284,0,15-6.716,15-15v-28.997C512,136.338,475.662,100,430.997,100z"/>
	<path d="M445.667,222.489c0-30.099-24.487-54.586-54.586-54.586s-54.586,24.487-54.586,54.586   c0,30.099,24.487,54.587,54.586,54.587S445.667,252.588,445.667,222.489z M376.081,222.489c0-8.271,6.729-15,15-15s15,6.729,15,15   c0,8.271-6.729,15-15,15S376.081,230.76,376.081,222.489z"/>
	<path d="M478,452h-84.445l-104.903-54.167l117.169-60.5h72.138c8.284,0,15-6.716,15-15s-6.716-15-15-15h-444   c-8.284,0-15,6.716-15,15s6.716,15,15,15h72.138l117.169,60.5L118.362,452H33.917c-8.284,0-15,6.716-15,15v30   c0,8.284,6.716,15,15,15H478c8.284,0,15-6.716,15-15v-30C493,458.716,486.284,452,478,452z M171.484,337.333h168.949   l-84.475,43.619L171.484,337.333z M183.75,452l72.208-37.285L328.167,452H183.75z"/>
</g>















</svg>
