<?xml version="1.0" encoding="iso-8859-1"?>
<!-- Generator: Adobe Illustrator 21.0.0, SVG Export Plug-In . SVG Version: 6.00 Build 0)  -->
<svg xmlns="http://www.w3.org/2000/svg" xmlns:xlink="http://www.w3.org/1999/xlink" version="1.1" id="Capa_1" x="0px" y="0px" viewBox="0 0 512 512" style="enable-background:new 0 0 512 512;" xml:space="preserve" width="512" height="512">
<g>
	<rect x="121" y="483" width="270" height="29"/>
	<rect x="121" y="423" width="270" height="30"/>
	<rect x="121" y="303" width="270" height="30"/>
	<rect x="121" y="363" width="270" height="30"/>
	<path d="M507.606,94.396L417.604,4.394C414.791,1.581,410.976,0,406.997,0H105.003c-3.979,0-7.794,1.581-10.607,4.394L4.394,94.396   C1.58,97.209,0,101.024,0,105.002v92.002c0,8.284,6.716,15,15,15h482c8.284,0,15-6.716,15-15v-92.002   C512,101.024,510.42,97.209,507.606,94.396z M344.977,151h-14.001c-19.368,0-35.84-12.582-41.705-29.998h-66.542   C216.865,138.417,200.392,151,181.024,151h-14.001c-8.284,0-15-6.716-15-15s6.716-15,15-15h14.001c1.572,0,3.141-0.264,4.624-0.784   c9.64-3.381,12.548-16.824,5.924-24.408c-2.643-3.027-6.529-4.802-10.549-4.802c-0.135,0-13.996,0-13.996,0   c-8.284,0-15-6.716-15-15s6.716-15,15-15h13.997c19.367,0,35.84,12.582,41.704,29.998h66.542   c5.865-17.415,22.337-29.998,41.705-29.998h13.997c8.284,0,15,6.716,15,15s-6.716,15-15,15h-13.997   c-1.705,0-3.407,0.311-4.999,0.922c-9.491,3.639-12.107,17.12-5.324,24.522c2.637,2.877,6.419,4.551,10.323,4.551   c0.005,0,14.001,0,14.001,0c8.284,0,15,6.716,15,15S353.261,151,344.977,151z"/>
	<path d="M31,497c0,8.284,6.716,15,15,15h45V288c0-8.284,6.716-15,15-15h300c8.284,0,15,6.716,15,15v224h45c8.284,0,15-6.716,15-15   V242.004H31V497z"/>
</g>















</svg>
