<?xml version="1.0" encoding="iso-8859-1"?>
<!-- Generator: Adobe Illustrator 21.0.0, SVG Export Plug-In . SVG Version: 6.00 Build 0)  -->
<svg xmlns="http://www.w3.org/2000/svg" xmlns:xlink="http://www.w3.org/1999/xlink" version="1.1" id="Capa_1" x="0px" y="0px" viewBox="0 0 512.004 512.004" style="enable-background:new 0 0 512.004 512.004;" xml:space="preserve" width="512" height="512">
<g>
	<path d="M160.002,345.887V438h192v-92.389c-24.71,26.81-59.592,42.142-96.128,42.142   C219.306,387.753,184.71,372.564,160.002,345.887z"/>
	<path d="M382.002,453c0,8.284-6.716,15-15,15c-0.084,0-0.166-0.011-0.25-0.013c-0.084,0.001-0.166,0.013-0.25,0.013h-221.5   c-8.284,0-15-6.716-15-15c0-0.169,0.02-0.333,0.025-0.5c-0.006-0.167-0.025-0.331-0.025-0.5V344.247l-30,7.889v159.867h312V352.137   l-30-7.89V453z"/>
	<path d="M0.002,436.263v60.741c0,8.284,6.716,15,15,15h55V360.026l-14.072,3.701C22.478,372.524,0.002,401.674,0.002,436.263z"/>
	<path d="M456.074,363.727l-14.072-3.701v151.978h54.999c8.284,0,15-6.716,15-15v-60.741   C512.001,401.674,489.526,372.524,456.074,363.727z"/>
	<path d="M146.968,98.81c40.419-15.092,75.058-22.121,109.012-22.121c33.954,0,68.606,7.029,109.05,22.12   c1.443,0.539,2.77,1.295,3.975,2.202l0.001-26.008C369.007,33.646,335.361,0,294.004,0h-76.001C176.646,0,143,33.646,143,75.003   l0,26.004C144.204,100.102,145.528,99.348,146.968,98.81z"/>
	<path d="M255.957,140.075c0.006,0,0.012,0,0.018,0c23.748,0,44.544,7.615,60.62,15.652c3.569-6.123,17.443-29.911,19.515-33.461   c-29.234-9.447-55.056-13.897-80.129-13.897c-25.076,0-50.898,4.453-80.121,13.903c2.931,5.031,17.096,29.317,19.513,33.459   C211.439,147.696,232.224,140.08,255.957,140.075z"/>
	<path d="M369.004,128.768c-9.116,15.61-27.669,47.423-32.791,56.217c-2.121,3.639-5.604,6.286-9.68,7.351   c-4.076,1.067-8.407,0.464-12.039-1.671c-13.801-8.118-34.882-18.91-58.52-18.91c-0.005,0-0.008,0-0.012,0   c-23.616,0.004-44.682,10.792-58.473,18.908c-2.456,1.445-5.232,2.188-8.034,2.188c-1.337,0-2.679-0.169-3.995-0.513   c-4.073-1.061-7.556-3.7-9.68-7.334c-4.227-7.231-23.237-39.826-32.779-56.205l0.001,48.878c0,62.309,50.692,113,113,113   s113-50.691,113-113L369.004,128.768z"/>
	<path d="M330.002,325.216v-25.214c-21.602,13.117-46.934,20.676-74,20.676s-52.398-7.559-74-20.676v25.491   c19.038,20.556,45.695,32.259,73.872,32.259C284.055,357.753,310.959,345.915,330.002,325.216z"/>
</g>















</svg>
