<?xml version="1.0" encoding="iso-8859-1"?>
<!-- Generator: Adobe Illustrator 21.0.0, SVG Export Plug-In . SVG Version: 6.00 Build 0)  -->
<svg xmlns="http://www.w3.org/2000/svg" xmlns:xlink="http://www.w3.org/1999/xlink" version="1.1" id="Capa_1" x="0px" y="0px" viewBox="0 0 512 512" style="enable-background:new 0 0 512 512;" xml:space="preserve" width="512" height="512">
<g>
	<path d="M0.262,41.7v46.668l18.599-18.599c5.857-5.857,15.354-5.857,21.211,0c5.857,5.857,5.857,15.354,0,21.211L0.262,130.791   v41.423l18.599-18.599c5.857-5.857,15.354-5.857,21.211,0c5.857,5.857,5.857,15.354,0,21.211L0.262,214.636v42.382l18.599-18.6   c5.857-5.857,15.354-5.857,21.211,0c5.857,5.857,5.857,15.354,0,21.211L0.262,299.44v41.881l18.599-18.599   c5.857-5.857,15.354-5.857,21.211,0c5.857,5.857,5.857,15.354,0,21.211L0.262,383.744v42.882l18.599-18.599   c5.857-5.857,15.354-5.857,21.211,0c5.857,5.857,5.857,15.354,0,21.211L0.262,469.047v1.253c0,22.966,18.734,41.7,41.7,41.7h47.621   V0H41.962C18.996,0,0.262,18.734,0.262,41.7z"/>
	<rect x="119.583" width="29.999" height="512"/>
	<path d="M229.45,94.739c-5.857-5.857-5.857-15.354,0-21.211l39.152-39.152C265.122,14.883,248.028,0,227.561,0h-47.979v512h47.979   c22.966,0,41.7-18.734,41.7-41.7v-55.904l-18.6,18.6c-5.857,5.857-15.354,5.857-21.211,0c-5.857-5.857-5.857-15.354,0-21.211   l39.811-39.811V330.55l-18.6,18.6c-5.857,5.857-15.354,5.857-21.211,0c-5.857-5.857-5.857-15.354,0-21.211l39.811-39.811v-42.382   l-18.6,18.6c-5.857,5.857-15.354,5.857-21.211,0c-5.857-5.857-5.857-15.354,0-21.211l39.811-39.811v-41.881l-18.6,18.6   c-5.857,5.857-15.354,5.857-21.211,0c-5.857-5.857-5.857-15.354,0-21.211l39.811-39.811V76.139l-18.6,18.6   C244.804,100.596,235.308,100.596,229.45,94.739z"/>
	<path d="M404.738,18c-59,0-107,48-107,107c0,5.785,0.468,11.462,1.356,17.001h91.953c0.258-0.302,43.876-43.963,43.876-43.963   c5.858-5.857,15.356-5.857,21.213,0c5.858,5.857,5.858,15.355,0,21.213l-22.749,22.75h76.995   c0.888-5.539,1.356-11.216,1.356-17.001C511.738,66,463.738,18,404.738,18z"/>
	<path d="M389.738,230.944v82.053c0,24.814-20.188,45.003-45.003,45.003h-45.997v30h45.997c41.357,0,75.003-33.646,75.003-75.003   v-82.053c35.69-5.03,65.781-27.73,81.107-58.943H308.631C323.958,203.214,354.049,225.914,389.738,230.944z"/>
</g>















</svg>
