<?xml version="1.0" encoding="iso-8859-1"?>
<!-- Generator: Adobe Illustrator 21.0.0, SVG Export Plug-In . SVG Version: 6.00 Build 0)  -->
<svg xmlns="http://www.w3.org/2000/svg" xmlns:xlink="http://www.w3.org/1999/xlink" version="1.1" id="Capa_1" x="0px" y="0px" viewBox="0 0 512 512" style="enable-background:new 0 0 512 512;" xml:space="preserve" width="512" height="512">
<g>
	<path d="M321.5,315.5v58H452c0.013,0,0.019-0.001,0.019-0.001l-0.007-57.999H321.5z"/>
	<rect x="321.5" y="227.5" width="130.504" height="58"/>
	<path d="M466.863,82.998h-73.35c-18.57-48.48-65.584-82.996-120.516-82.996h-50.995c-54.932,0-101.946,34.516-120.516,82.996H45   c-24.813,0-45,20.187-45,45v155c0,24.813,20.187,45,45,45h126c24.813,0,45-20.187,45-45v-155c0-24.813-20.187-45-45-45h-36.639   c16.593-31.482,49.649-52.996,87.641-52.996h50.995c37.992,0,71.048,21.514,87.641,52.996h-53.502   c-24.889,0-45.137,20.248-45.137,45.137v260.727c0,24.889,20.248,45.137,45.137,45.137h159.727   c24.889,0,45.137-20.248,45.137-45.137V128.135C512,103.246,491.752,82.998,466.863,82.998z M171.667,275.997H45   c-8.284,0-15-6.716-15-15s6.716-15,15-15h126.667c8.284,0,15,6.716,15,15S179.951,275.997,171.667,275.997z M171.667,185.997   c8.284,0,15,6.716,15,15s-6.716,15-15,15H45c-8.284,0-15-6.716-15-15s6.716-15,15-15H171.667z M482,373.5c0,16.542-13.458,30-30,30   H321.5c-16.542,0-30-13.458-30-30v-146c0-16.542,13.458-30,30-30H452c16.542,0,30,13.458,30,30V373.5z"/>
	<path d="M66,496.998c0,8.284,6.716,15,15,15h22.997c5.238,0,10.097-2.732,12.818-7.209l31.003-51.003   c1.427-2.348,2.182-5.043,2.182-7.791V357.5H66V496.998z"/>
</g>















</svg>
