<?xml version="1.0" encoding="iso-8859-1"?>
<!-- Generator: Adobe Illustrator 21.0.0, SVG Export Plug-In . SVG Version: 6.00 Build 0)  -->
<svg xmlns="http://www.w3.org/2000/svg" xmlns:xlink="http://www.w3.org/1999/xlink" version="1.1" id="Capa_1" x="0px" y="0px" viewBox="0 0 512 512" style="enable-background:new 0 0 512 512;" xml:space="preserve" width="512" height="512">
<g>
	<path d="M309.5,30H209c-8.284,0-15,6.716-15,15s6.716,15,15,15h100.5c8.284,0,15-6.716,15-15S317.784,30,309.5,30z"/>
	<path d="M309.5,90.001H209c-8.284,0-15,6.716-15,15s6.716,15,15,15h100.5c8.284,0,15-6.716,15-15S317.784,90.001,309.5,90.001z"/>
	<path d="M309.5,150.001H209c-8.284,0-15,6.716-15,15s6.716,15,15,15h100.5c8.284,0,15-6.716,15-15S317.784,150.001,309.5,150.001z"/>
	<path d="M149,0h-44C47.103,0,0,47.104,0,105.001s47.103,105,105,105h44c8.284,0,15-6.716,15-15V15C164,6.716,157.284,0,149,0z"/>
	<path d="M303,332H202.5c-8.284,0-15,6.716-15,15s6.716,15,15,15H303c8.284,0,15-6.716,15-15S311.284,332,303,332z"/>
	<path d="M303,392H202.5c-8.284,0-15,6.716-15,15s6.716,15,15,15H303c8.284,0,15-6.716,15-15S311.284,392,303,392z"/>
	<path d="M303,452H202.5c-8.284,0-15,6.716-15,15s6.716,15,15,15H303c8.284,0,15-6.716,15-15S311.284,452,303,452z"/>
	<path d="M407,301.999h-44c-8.284,0-15,6.716-15,15V497c0,8.284,6.716,15,15,15h44c57.897,0,105-47.104,105-105.001   S464.897,301.999,407,301.999z"/>
</g>















</svg>
