<?xml version="1.0" encoding="iso-8859-1"?>
<!-- Generator: Adobe Illustrator 21.0.0, SVG Export Plug-In . SVG Version: 6.00 Build 0)  -->
<svg xmlns="http://www.w3.org/2000/svg" xmlns:xlink="http://www.w3.org/1999/xlink" version="1.1" id="Capa_1" x="0px" y="0px" viewBox="0 0 511.875 511.875" style="enable-background:new 0 0 511.875 511.875;" xml:space="preserve" width="512" height="512">
<g>
	<path d="M88.604,150h29.667c16.569,0,30-13.431,30-30V30c0-16.569-13.431-30-30-30H88.604c-16.569,0-30,13.431-30,30v90   C58.604,136.569,72.036,150,88.604,150z"/>
	<path d="M423.271,0h-29.667c-16.569,0-30,13.431-30,30v90c0,16.569,13.431,30,30,30h29.667c16.569,0,30-13.431,30-30V30   C453.271,13.431,439.839,0,423.271,0z"/>
	<path d="M118.396,361.875H88.729c-16.569,0-30,13.431-30,30v90c0,16.569,13.431,30,30,30h29.667c16.569,0,30-13.431,30-30v-90   C148.396,375.306,134.964,361.875,118.396,361.875z"/>
	<path d="M423.25,361.875h-29.667c-16.569,0-30,13.431-30,30v90c0,16.569,13.431,30,30,30h29.667c16.569,0,30-13.431,30-30v-90   C453.25,375.306,439.819,361.875,423.25,361.875z"/>
	<path d="M253.438,30.57c-19.342,0-35.871,12.267-42.22,29.43h-33.78v30h33.387c4.426,13.035,14.667,23.402,27.625,27.994v277.152   c-12.58,4.458-22.607,14.353-27.232,26.854h-33.78v30h33.387c6.029,17.755,22.847,30.57,42.613,30.57s36.584-12.816,42.613-30.57   h37.512v-30h-37.905c-4.622-12.493-14.64-22.384-27.208-26.846V117.986c12.948-4.596,23.178-14.959,27.602-27.986h37.512V60   h-37.905C289.308,42.838,272.78,30.57,253.438,30.57z M253.438,452.57c-8.271,0-15-6.729-15-15c0-8.271,6.729-15,15-15   s15,6.729,15,15C268.438,445.841,261.709,452.57,253.438,452.57z M253.438,90.57c-8.271,0-15-6.729-15-15c0-8.271,6.729-15,15-15   s15,6.729,15,15C268.438,83.841,261.709,90.57,253.438,90.57z"/>
</g>















</svg>
