<?xml version="1.0" encoding="iso-8859-1"?>
<!-- Generator: Adobe Illustrator 21.0.0, SVG Export Plug-In . SVG Version: 6.00 Build 0)  -->
<svg xmlns="http://www.w3.org/2000/svg" xmlns:xlink="http://www.w3.org/1999/xlink" version="1.1" id="Capa_1" x="0px" y="0px" viewBox="0 0 511.759 511.759" style="enable-background:new 0 0 511.759 511.759;" xml:space="preserve" width="512" height="512">
<g>
	<polygon points="96.151,424.264 96.151,424.264 96.151,424.263  "/>
	<path d="M350.118,309.48L210.934,170.296c-5.858-5.858-15.355-5.858-21.213,0l-40.775,40.775c-5.858,5.858-5.858,15.355,0,21.213   L288.13,371.468c5.858,5.858,15.355,5.858,21.213,0l40.775-40.775C355.976,324.836,355.976,315.338,350.118,309.48z"/>
	<path d="M222.891,407.576l-8.005-8.005l29.461-29.461l-94.042-94.042l-29.461,29.461l-8.005-8.005   c-5.858-5.858-15.355-5.858-21.213,0c-5.858,5.858-5.858,15.355,0,21.213l8.005,8.005l-18.854,18.854   c-0.002,0.002-0.004,0.005-0.006,0.007L14.423,411.95C5.122,421.25,0,433.639,0,446.835c0,13.196,5.122,25.585,14.423,34.885   l16.991,16.991c5.858,5.858,15.355,5.858,21.213,0c5.858-5.858,5.858-15.355,0-21.213l-16.992-16.992   C32.002,456.872,30,452.017,30,446.835c0-5.183,2.002-10.038,5.636-13.673l55.747-55.747l15.201,15.201L96.151,403.05   c-5.858,5.858-5.858,15.355,0,21.213c5.857,5.857,15.355,5.858,21.213,0l10.433-10.433l25.808,25.808   c5.858,5.858,15.355,5.858,21.213,0l18.854-18.854l8.005,8.005c5.858,5.858,15.355,5.858,21.213,0   C228.749,422.932,228.749,413.434,222.891,407.576z"/>
	<path d="M368.938,181.696c6.86,6.86,12.511,14.476,16.965,22.581L500.931,89.25c5.858-5.858,5.858-15.355,0-21.213l-13.67-13.67   l20.105-20.105c5.858-5.858,5.858-15.355,0-21.213s-15.355-5.858-21.213,0l-20.104,20.104l-13.669-13.67l0,0   c-2.813-2.813-6.628-4.394-10.607-4.393c-3.978,0-7.793,1.58-10.607,4.393L316.147,134.501   c8.189,4.508,15.787,10.191,22.571,16.975L368.938,181.696z"/>
	<path d="M347.725,202.909l-30.22-30.22c-13.236-13.236-30.891-20.525-49.714-20.525c-9.493,0-18.686,1.859-27.168,5.395   l122.222,122.222C373.503,254.245,368.472,223.656,347.725,202.909z"/>
</g>















</svg>
