<?xml version="1.0" encoding="iso-8859-1"?>
<!-- Generator: Adobe Illustrator 21.0.0, SVG Export Plug-In . SVG Version: 6.00 Build 0)  -->
<svg xmlns="http://www.w3.org/2000/svg" xmlns:xlink="http://www.w3.org/1999/xlink" version="1.1" id="Capa_1" x="0px" y="0px" viewBox="0 0 512 512" style="enable-background:new 0 0 512 512;" xml:space="preserve" width="512" height="512">
<g>
	<rect x="362" y="262.511" width="30" height="42"/>
	<rect x="120" y="262.511" width="30" height="42"/>
	<path d="M497,159.5h-29.185c-2.024-21.842-20.454-39-42.815-39h-51v-15c0-24.813-20.187-45-45-45H183c-24.813,0-45,20.187-45,45v15   H87c-22.361,0-40.791,17.158-42.815,39H15c-8.284,0-15,6.716-15,15v79c0,7.563,5.602,13.801,12.88,14.833H90v-20.822   c0-8.284,6.716-15,15-15h60c8.284,0,15,6.716,15,15v20.822h152v-20.822c0-8.284,6.716-15,15-15h60c8.284,0,15,6.716,15,15v20.822   h77.12c7.277-1.032,12.88-7.271,12.88-14.833v-79C512,166.216,505.284,159.5,497,159.5z M168,105.5c0-8.271,6.729-15,15-15h146   c8.271,0,15,6.729,15,15v15H168V105.5z"/>
	<path d="M422,319.511c0,8.284-6.716,15-15,15h-60c-8.284,0-15-6.716-15-15v-21.178H180v21.178c0,8.284-6.716,15-15,15h-60   c-8.284,0-15-6.716-15-15v-21.178H30v108.178c0,24.807,20.182,44.989,44.989,44.989h362.021c24.807,0,44.989-20.183,44.989-44.989   V298.333h-60V319.511z"/>
</g>















</svg>
