<?xml version="1.0" encoding="iso-8859-1"?>
<!-- Generator: Adobe Illustrator 21.0.0, SVG Export Plug-In . SVG Version: 6.00 Build 0)  -->
<svg xmlns="http://www.w3.org/2000/svg" xmlns:xlink="http://www.w3.org/1999/xlink" version="1.1" id="Capa_1" x="0px" y="0px" viewBox="0 0 512.336 512.336" style="enable-background:new 0 0 512.336 512.336;" xml:space="preserve" width="512" height="512">
<g>
	<path d="M430.502,453.503H81.835c-27.2,0-49.25,22.05-49.25,49.25l0,0c0,5.293,4.291,9.583,9.583,9.583h428   c5.293,0,9.583-4.291,9.583-9.583l0,0C479.752,475.553,457.702,453.503,430.502,453.503z"/>
	<path d="M111.835,423.336h288.667c5.293,0,9.583-4.291,9.583-9.583l0,0c0-27.2-22.05-49.25-49.25-49.25H151.502   c-27.2,0-49.25,22.05-49.25,49.25l0,0C102.252,419.046,106.542,423.336,111.835,423.336z"/>
	<path d="M170.168,335.836h172c5.293,0,9.583-4.291,9.583-9.583l0,0c0-27.2-22.05-49.25-49.25-49.25h-30.25v-87h27.99   c7.556,0,13.933-5.62,14.881-13.117c1.917-15.146,9.544-85.365,11.44-100.329c2.526-19.933-3.16-38.437-16.443-53.511   C297.496,8.721,279.758,0.42,260.66,0.019c-21.271-0.447-42.034,6.831-56.306,23.023c-13.284,15.071-18.972,33.573-16.449,53.504   c1.878,14.834,9.521,85.064,11.462,100.348c0.952,7.493,7.327,13.109,14.88,13.109h28.003v87h-32.417   c-27.2,0-49.25,22.05-49.25,49.25l0,0C160.585,331.546,164.875,335.836,170.168,335.836z"/>
</g>















</svg>
