<?xml version="1.0" encoding="iso-8859-1"?>
<!-- Generator: Adobe Illustrator 21.0.0, SVG Export Plug-In . SVG Version: 6.00 Build 0)  -->
<svg xmlns="http://www.w3.org/2000/svg" xmlns:xlink="http://www.w3.org/1999/xlink" version="1.1" id="Capa_1" x="0px" y="0px" viewBox="0 0 512 512" style="enable-background:new 0 0 512 512;" xml:space="preserve" width="512" height="512">
<path d="M482,332.58V179.42c17.459-6.192,30-22.865,30-42.42c0-24.813-20.187-45-45-45s-45,20.187-45,45  c0,19.555,12.541,36.228,30,42.42V241h-90v-61.58c17.459-6.192,30-22.865,30-42.42c0-24.813-20.187-45-45-45s-45,20.187-45,45  c0,19.555,12.541,36.228,30,42.42V241h-90v-61.58c17.459-6.192,30-22.865,30-42.42c0-24.813-20.187-45-45-45s-45,20.187-45,45  c0,19.555,12.541,36.228,30,42.42V241H60v-61.58c17.459-6.192,30-22.865,30-42.42c0-24.813-20.187-45-45-45S0,112.187,0,137  c0,19.555,12.541,36.228,30,42.42V256c0,8.284,6.716,15,15,15h167v61.58c-17.459,6.192-30,22.865-30,42.42c0,24.813,20.187,45,45,45  s45-20.187,45-45c0-19.555-12.541-36.228-30-42.42V271h90v61.58c-17.459,6.192-30,22.865-30,42.42c0,24.813,20.187,45,45,45  s45-20.187,45-45c0-19.555-12.541-36.228-30-42.42V271h90v61.58c-17.459,6.192-30,22.865-30,42.42c0,24.813,20.187,45,45,45  s45-20.187,45-45C512,355.445,499.459,338.772,482,332.58z M45,122c8.271,0,15,6.729,15,15c0,8.271-6.729,15-15,15s-15-6.729-15-15  C30,128.729,36.729,122,45,122z M227,122c8.271,0,15,6.729,15,15c0,8.271-6.729,15-15,15s-15-6.729-15-15  C212,128.729,218.729,122,227,122z M227,390c-8.271,0-15-6.729-15-15c0-8.268,6.724-14.994,14.99-15c0.003,0,0.006,0,0.01,0  s0.006,0,0.01,0c8.267,0.005,14.99,6.731,14.99,15C242,383.271,235.271,390,227,390z M347,122c8.271,0,15,6.729,15,15  c0,8.271-6.729,15-15,15s-15-6.729-15-15C332,128.729,338.729,122,347,122z M347,390c-8.271,0-15-6.729-15-15  c0-8.268,6.724-14.994,14.99-15c0.003,0,0.006,0,0.01,0s0.006,0,0.01,0c8.267,0.005,14.99,6.731,14.99,15  C362,383.271,355.271,390,347,390z M467,122c8.271,0,15,6.729,15,15c0,8.271-6.729,15-15,15s-15-6.729-15-15  C452,128.729,458.729,122,467,122z M467,390c-8.271,0-15-6.729-15-15c0-8.268,6.724-14.994,14.99-15c0.003,0,0.006,0,0.01,0  s0.006,0,0.01,0c8.267,0.005,14.99,6.731,14.99,15C482,383.271,475.271,390,467,390z"/>















</svg>
