<?xml version="1.0" encoding="iso-8859-1"?>
<!-- Generator: Adobe Illustrator 21.0.0, SVG Export Plug-In . SVG Version: 6.00 Build 0)  -->
<svg xmlns="http://www.w3.org/2000/svg" xmlns:xlink="http://www.w3.org/1999/xlink" version="1.1" id="Capa_1" x="0px" y="0px" viewBox="0 0 512.009 512.009" style="enable-background:new 0 0 512.009 512.009;" xml:space="preserve" width="512" height="512">
<g>
	<path d="M440.585,237h-28h-30V110h15c8.284,0,15-6.716,15-15V15c0-8.284-6.716-15-15-15h-60c-8.284,0-15,6.716-15,15v80   c0,8.284,6.716,15,15,15h15.001v127h-30h-28c-8.284,0-15,6.716-15,15s6.716,15,15,15h13v200.001c0,24.813,20.187,44.999,45,44.999   h30c24.813,0,45-20.187,45-44.999V267h13c8.284,0,15-6.716,15-15S448.869,237,440.585,237z"/>
	<path d="M153.09,400.184c-8.271,0-15,6.729-15,15s6.729,15,15,15s15-6.729,15-15S161.361,400.184,153.09,400.184z"/>
	<path d="M198.132,329.796V143.835c24.023-14.838,40.011-41.174,40.011-71.209c0-29.955-15.896-56.235-39.813-71.092   c-6.643-4.127-15.24,0.707-15.24,8.527v50.69c0,16.568-13.431,30-30,30h0c-16.568,0-30-13.432-30-30v-50.69   c0-7.82-8.597-12.654-15.24-8.527C83.934,16.39,68.037,42.671,68.037,72.626c0,30.035,15.989,56.371,40.011,71.209v185.961   c-30.697,16.196-51.625,48.425-51.625,85.546c0,53.387,43.279,96.667,96.667,96.667c53.388,0,96.667-43.279,96.667-96.667   C249.757,378.221,228.829,345.993,198.132,329.796z M153.09,460.184c-24.813,0-45-20.187-45-45s20.187-45,45-45s45,20.187,45,45   S177.903,460.184,153.09,460.184z"/>
</g>















</svg>
