<?xml version="1.0" encoding="iso-8859-1"?>
<!-- Generator: Adobe Illustrator 21.0.0, SVG Export Plug-In . SVG Version: 6.00 Build 0)  -->
<svg xmlns="http://www.w3.org/2000/svg" xmlns:xlink="http://www.w3.org/1999/xlink" version="1.1" id="Capa_1" x="0px" y="0px" viewBox="0 0 512 512" style="enable-background:new 0 0 512 512;" xml:space="preserve" width="512" height="512">
<g>
	<path d="M44.347,141.399l97.052-97.052L101.446,4.393c-5.858-5.858-15.355-5.858-21.213,0L4.393,80.233   c-5.858,5.858-5.858,15.355,0,21.213L44.347,141.399z"/>
	<path d="M467.653,370.601l-97.052,97.052l39.954,39.954c5.858,5.858,15.355,5.858,21.213,0l75.839-75.839   c5.858-5.858,5.858-15.355,0-21.213L467.653,370.601z"/>
	<path d="M507.607,101.446c5.858-5.858,5.858-15.355,0-21.213L431.768,4.393c-5.858-5.858-15.355-5.858-21.213,0l-39.954,39.954   l97.052,97.052L507.607,101.446z"/>
	<path d="M372.819,190.093c4.687,4.534,11.776,5.533,17.534,2.432l54.772-29.492c0.372-0.2,0.732-0.42,1.084-0.65l-96.592-96.592   c-0.23,0.353-0.45,0.713-0.65,1.084l-29.493,54.773c-3.101,5.759-2.102,12.847,2.432,17.534L139.182,321.906   c-4.687-4.534-11.776-5.532-17.534-2.432l-54.773,29.493c-0.372,0.2-0.732,0.42-1.084,0.65l96.592,96.592   c0.23-0.353,0.45-0.712,0.65-1.084l29.492-54.772c3.101-5.759,2.103-12.848-2.432-17.534L372.819,190.093z"/>
	<path d="M4.393,410.554c-5.858,5.858-5.858,15.355,0,21.213l75.839,75.839c5.858,5.858,15.355,5.858,21.213,0l39.954-39.954   l-97.052-97.052L4.393,410.554z"/>
	<path d="M66.875,163.032l54.773,29.493c5.759,3.101,12.848,2.103,17.534-2.432l44.693,44.693l50.912-50.912l-44.694-44.694   c4.534-4.687,5.533-11.776,2.432-17.534l-29.492-54.772c-0.2-0.372-0.42-0.731-0.65-1.084l-96.592,96.592   C66.143,162.613,66.503,162.832,66.875,163.032z"/>
	<path d="M445.125,348.968l-54.772-29.492c-5.759-3.101-12.848-2.102-17.534,2.432l-45.047-45.047l-50.912,50.912l45.047,45.047   c-4.534,4.687-5.532,11.777-2.432,17.534l29.493,54.773c0.2,0.372,0.42,0.731,0.65,1.084l96.592-96.592   C445.857,349.388,445.497,349.168,445.125,348.968z"/>
</g>















</svg>
