<?xml version="1.0" encoding="iso-8859-1"?>
<!-- Generator: Adobe Illustrator 21.0.0, SVG Export Plug-In . SVG Version: 6.00 Build 0)  -->
<svg xmlns="http://www.w3.org/2000/svg" xmlns:xlink="http://www.w3.org/1999/xlink" version="1.1" id="Capa_1" x="0px" y="0px" viewBox="0 0 512 512" style="enable-background:new 0 0 512 512;" xml:space="preserve" width="512" height="512">
<g>
	<path d="M497,106h-45c0-8.284-6.716-15-15-15H325.46c50.819,21.487,89.726,65.792,103.81,120H437c8.284,0,15-6.716,15-15h45   c8.284,0,15-6.716,15-15v-60C512,112.716,505.284,106,497,106z"/>
	<path d="M228.16,306.889c8.259,4.53,17.732,7.111,27.798,7.111c10.066,0,19.539-2.581,27.798-7.111l-27.798-27.798L228.16,306.889z   "/>
	<path d="M286.135,206.488c-8.797-5.382-19.13-8.488-30.176-8.488c-11.047,0-21.38,3.107-30.177,8.489l30.176,30.176   L286.135,206.488z"/>
	<path d="M205.069,228.202c-4.53,8.259-7.111,17.732-7.111,27.798c0,11.046,3.107,21.379,8.488,30.176l28.298-28.298   L205.069,228.202z"/>
	<path d="M277.171,257.878l28.299,28.299c5.382-8.797,8.488-19.13,8.488-30.177c0-10.066-2.581-19.539-7.111-27.798L277.171,257.878   z"/>
	<path d="M255.958,106.958c-82.182,0-149.042,66.86-149.042,149.042c0,82.182,66.86,149.041,149.042,149.041   C338.141,405.041,405,338.182,405,256C405,173.818,338.141,106.958,255.958,106.958z M255.958,344c-48.523,0-88-39.477-88-88   s39.477-88,88-88c48.523,0,88,39.477,88,88S304.481,344,255.958,344z"/>
	<path d="M82.646,301H75c-8.284,0-15,6.716-15,15H15c-8.284,0-15,6.716-15,15v60c0,8.284,6.716,15,15,15h45c0,8.284,6.716,15,15,15   h111.459C135.639,399.514,96.731,355.208,82.646,301z"/>
</g>















</svg>
