<?xml version="1.0" encoding="iso-8859-1"?>
<!-- Generator: Adobe Illustrator 21.0.0, SVG Export Plug-In . SVG Version: 6.00 Build 0)  -->
<svg xmlns="http://www.w3.org/2000/svg" xmlns:xlink="http://www.w3.org/1999/xlink" version="1.1" id="Capa_1" x="0px" y="0px" viewBox="0 0 512 512" style="enable-background:new 0 0 512 512;" xml:space="preserve" width="512" height="512">
<g>
	<path d="M451.421,482h-26v-75c0-8.284-6.716-15-15-15H240.405c-8.284,0-15,6.716-15,15v15H122.423   c-24.814,0-45.002-20.188-45.002-45.003V267.774c3.048-0.517,5.888-1.953,8.103-4.168l22.003-22.003   c2.813-2.813,4.394-6.628,4.394-10.606V183c0-8.284-6.716-15-15-15h-70c-8.284,0-15,6.716-15,15v47.997   c0,3.979,1.58,7.794,4.394,10.606l22.003,22.003c2.456,2.457,5.678,3.973,9.104,4.317v109.073   c0,41.356,33.646,75.003,75.002,75.003h102.981v30h-26.001c-8.284,0-15,6.716-15,15s6.716,15,15,15h252.017c8.284,0,15-6.716,15-15   S459.705,482,451.421,482z"/>
	<path d="M392.517,186.667c0-8.284-6.716-15-15-15h-37.104v-60h7.425c15.154,0,27.676-11.238,29.705-25.833h0.033v-60h-0.033   C375.514,11.238,362.991,0,347.837,0h-44.849c-15.151,0-27.671,11.234-29.704,25.825v60.017   c2.033,14.591,14.553,25.825,29.704,25.825h7.425v60h-37.104c-8.284,0-15,6.716-15,15V362h134.208V186.667z"/>
	<path d="M180.746,85.833h62.538v-60h-62.538c-16.568,0-30,13.432-30,30v0C150.746,72.402,164.177,85.833,180.746,85.833z"/>
	<path d="M470.079,25.833h-62.504v60h62.504c16.568,0,30-13.431,30-30v0C500.079,39.265,486.648,25.833,470.079,25.833z"/>
</g>















</svg>
