<?xml version="1.0" encoding="iso-8859-1"?>
<!-- Generator: Adobe Illustrator 21.0.0, SVG Export Plug-In . SVG Version: 6.00 Build 0)  -->
<svg xmlns="http://www.w3.org/2000/svg" xmlns:xlink="http://www.w3.org/1999/xlink" version="1.1" id="Capa_1" x="0px" y="0px" viewBox="0 0 512.019 512.019" style="enable-background:new 0 0 512.019 512.019;" xml:space="preserve" width="512" height="512">
<g>
	<path d="M482.019,247.911h-28.905v74.161c0,29.204-12.006,55.652-31.335,74.683h60.241c16.569,0,30-13.431,30-30v-88.844   C512.019,261.343,498.588,247.911,482.019,247.911z"/>
	<path d="M423.114,189.949c0-21.245-8.971-41.529-24.613-55.649c-13.743-12.407-31.699-19.204-50.187-19.204   c-2.555,0-5.116,0.13-7.682,0.392c-60.938,6.248-144.394,14.804-212.83,36.48c-38.631,12.235-67.677,26.996-88.797,45.125   C13.124,219.311,0,246.259,0,277.189c0,66.021,53.712,119.733,119.733,119.733h228.53c41.273,0,74.851-33.578,74.851-74.851   V189.949z M130.466,316.298c-3.839,0-7.677-1.464-10.606-4.394c-5.858-5.857-5.858-15.355,0-21.213l84.897-84.896   c2.929-2.929,6.769-4.394,10.607-4.394s7.677,1.464,10.606,4.394c5.858,5.857,5.858,15.355,0,21.213l-84.897,84.896   C138.144,314.833,134.305,316.298,130.466,316.298z M279.322,258.593l-28.715,28.715c-2.929,2.929-6.768,4.394-10.606,4.394   c-3.839,0-7.677-1.464-10.606-4.394c-5.858-5.857-5.858-15.355,0-21.213l28.715-28.715c2.929-2.929,6.768-4.394,10.606-4.394   s7.677,1.465,10.606,4.394C285.18,243.238,285.18,252.736,279.322,258.593z M317.533,221.327l-4.994,4.994   c-2.929,2.929-6.768,4.394-10.607,4.394c-3.839,0-7.677-1.464-10.606-4.393c-5.858-5.857-5.859-15.355-0.001-21.214l4.994-4.994   c2.929-2.929,6.768-4.393,10.607-4.394s7.677,1.464,10.606,4.393C323.391,205.971,323.391,215.469,317.533,221.327z"/>
</g>















</svg>
