<?xml version="1.0" encoding="iso-8859-1"?>
<!-- Generator: Adobe Illustrator 21.0.0, SVG Export Plug-In . SVG Version: 6.00 Build 0)  -->
<svg xmlns="http://www.w3.org/2000/svg" xmlns:xlink="http://www.w3.org/1999/xlink" version="1.1" id="Capa_1" x="0px" y="0px" viewBox="0 0 511.906 511.906" style="enable-background:new 0 0 511.906 511.906;" xml:space="preserve" width="512" height="512">
<g>
	<path d="M128.477,355.835l66.108,66.563h124.164l65.013-66.394c-5.981-2.945-12.703-4.606-19.808-4.606h-216   C140.98,351.398,134.373,352.993,128.477,355.835z"/>
	<path d="M335.771,447.893c-2.822,2.882-6.685,4.506-10.718,4.506H188.341c-3.996,0-7.827-1.595-10.643-4.43l-70.387-70.872   c-2.791,5.853-4.358,12.397-4.358,19.302v100.508c0,8.284,6.716,15,15,15h276c8.284,0,15-6.716,15-15V396.398   c0-6.769-1.511-13.188-4.2-18.953L335.771,447.893z"/>
	<path d="M315.953,291.003c8.284,0,15-6.716,15-15v-41.967h-150v41.967c0,8.284,6.716,15,15,15H315.953z"/>
	<path d="M330.953,54.003V15c0-8.284-6.716-15-15-15h-120c-8.284,0-15,6.716-15,15v39.003v60.001h150V54.003z"/>
	<path d="M409.953,54.003h-49v60.001h12.167c8.284,0,15,6.716,15,15s-6.716,15-15,15H138.786c-8.284,0-15-6.716-15-15   s6.716-15,15-15h12.167V54.003h-49c-8.284,0-15,6.716-15,15v120c0,8.284,6.716,15,15,15h308c8.284,0,15-6.716,15-15v-120   C424.953,60.719,418.237,54.003,409.953,54.003z"/>
</g>















</svg>
