<?xml version="1.0" encoding="iso-8859-1"?>
<!-- Generator: Adobe Illustrator 21.0.0, SVG Export Plug-In . SVG Version: 6.00 Build 0)  -->
<svg xmlns="http://www.w3.org/2000/svg" xmlns:xlink="http://www.w3.org/1999/xlink" version="1.1" id="Capa_1" x="0px" y="0px" viewBox="0 0 512 512" style="enable-background:new 0 0 512 512;" xml:space="preserve" width="512" height="512">
<g>
	<path d="M497,253.282h-45.333v90H497c8.284,0,15-6.716,15-15v-60C512,259.998,505.284,253.282,497,253.282z"/>
	<path d="M73,243.282v-137c0-8.284-6.716-15-15-15H15c-8.284,0-15,6.716-15,15v222c0,8.284,6.716,15,15,15h119v-90H83   C77.477,253.282,73,248.805,73,243.282z"/>
	<path d="M407.667,162.973c-8.284,0-15,6.716-15,15v9.309H193.958v-9.309c0-8.284-6.716-15-15-15s-15,6.716-15,15v227.745   c0,8.284,6.716,15,15,15s15-6.716,15-15v-8.437h198.708v8.437c0,8.284,6.716,15,15,15s15-6.716,15-15v-8.437v-210v-9.309   C422.667,169.689,415.951,162.973,407.667,162.973z"/>
</g>















</svg>
