<?xml version="1.0" encoding="iso-8859-1"?>
<!-- Generator: Adobe Illustrator 21.0.0, SVG Export Plug-In . SVG Version: 6.00 Build 0)  -->
<svg xmlns="http://www.w3.org/2000/svg" xmlns:xlink="http://www.w3.org/1999/xlink" version="1.1" id="Capa_1" x="0px" y="0px" viewBox="0 0 512.011 512.011" style="enable-background:new 0 0 512.011 512.011;" xml:space="preserve" width="512" height="512">
<g>
	<path d="M113.568,190.498h-46c-8.284,0-15,6.716-15,15v35h-15c-8.284,0-15,6.716-15,15s6.716,15,15,15h15v35   c0,8.284,6.716,15,15,15h46c8.284,0,15-6.716,15-15v-100C128.568,197.214,121.852,190.498,113.568,190.498z"/>
	<path d="M483.423,429.52l-42.14-72.989c-14.571,12.15-33.299,19.475-53.71,19.475h-73.609L379.5,489.52   c8.326,14.421,23.481,22.491,39.046,22.491c7.629,0,15.356-1.939,22.425-6.021l25.981-15   C488.441,478.584,495.829,451.008,483.423,429.52z"/>
	<path d="M441.568,292.01v-61.008c0-8.284-6.716-15-15-15h-116v-38.005h8.896c34.796,0,63.104-28.309,63.104-63.105V30h9   c8.284,0,15-6.716,15-15s-6.716-15-15-15h-192c-8.284,0-15,6.716-15,15s6.716,15,15,15h9v84.892   c0,34.797,28.309,63.105,63.105,63.105h8.895v38.005H158.582v79h40.068c1.557,28.389,25.144,51.004,53.913,51.004h135.01   C417.346,346.006,441.568,321.783,441.568,292.01z"/>
</g>















</svg>
