<?xml version="1.0" encoding="iso-8859-1"?>
<!-- Generator: Adobe Illustrator 21.0.0, SVG Export Plug-In . SVG Version: 6.00 Build 0)  -->
<svg xmlns="http://www.w3.org/2000/svg" xmlns:xlink="http://www.w3.org/1999/xlink" version="1.1" id="Capa_1" x="0px" y="0px" viewBox="0 0 511.827 511.827" style="enable-background:new 0 0 511.827 511.827;" xml:space="preserve" width="512" height="512">
<path d="M510.065,321.489c-6.242-21.885-46.64-163.683-53.96-189.295c-5.686-19.897-23.41-33.267-44.105-33.267H270.914v37.039  h23.953c8.284,0,15,6.716,15,15s-6.716,15-15,15h-77.905c-8.284,0-15-6.716-15-15s6.716-15,15-15h23.953V98.927H99.802  c-20.71,0-38.439,13.382-44.115,33.3c0,0-47.576,167.009-53.925,189.268c-6.925,24.283,7.187,49.706,31.458,56.672  c21.367,6.132,42.131,11.43,62.377,15.922l115.005-115.006c5.857-5.857,15.355-5.857,21.213,0c5.858,5.857,5.858,15.355,0,21.213  l-100.899,100.9c41.194,7.41,80.285,11.279,117.957,11.705l124.452-124.452c5.858-5.858,15.355-5.858,21.213,0  c5.858,5.857,5.858,15.355,0,21.213L292.322,411.877c57.71-3.313,119.023-14.425,186.278-33.713  C502.878,371.199,516.993,345.775,510.065,321.489z"/>















</svg>
