<?xml version="1.0" encoding="iso-8859-1"?>
<!-- Generator: Adobe Illustrator 21.0.0, SVG Export Plug-In . SVG Version: 6.00 Build 0)  -->
<svg xmlns="http://www.w3.org/2000/svg" xmlns:xlink="http://www.w3.org/1999/xlink" version="1.1" id="Capa_1" x="0px" y="0px" viewBox="0 0 512.05 512.05" style="enable-background:new 0 0 512.05 512.05;" xml:space="preserve" width="512" height="512">
<g>
	<path d="M406.918,244.746c0.011-21.674-13.231-40.278-33.736-47.396c-39.761-13.802-110.462-16.706-122.735-16.706   c-49.632,0-96.313,6.785-124.874,18.151c-19.502,7.762-31.624,25.617-31.634,46.598l-0.021,25.692   c-0.007,13.385,5.223,25.986,14.728,35.482c9.499,9.491,22.106,14.719,35.498,14.719h212.527c27.68,0,50.211-22.491,50.226-50.136   L406.918,244.746z M167.857,265.965c-8.262,0-15-6.738-15-15s6.738-15,15-15s15,6.738,15,15S176.119,265.965,167.857,265.965z    M269.855,265.965h-41.999c-8.284,0-15-6.716-15-15s6.716-15,15-15h41.999c8.284,0,15,6.716,15,15S278.139,265.965,269.855,265.965   z M329.857,265.965c-8.262,0-15-6.738-15-15s6.738-15,15-15c8.262,0,15,6.738,15,15S338.119,265.965,329.857,265.965z"/>
	<path d="M510.592,364.472l-18.934-44.866c-2.417-5.728-7.975-9.172-13.826-9.172c-1.931,0-3.895,0.376-5.788,1.168l-47.232,19.779   c-7.641,3.2-11.242,11.988-8.042,19.63c3.201,7.643,11.989,11.24,19.63,8.042l13.442-5.629   c-34.023,77.595-111.11,128.626-196.888,128.626c-98.02,0-183.615-66.278-208.153-161.176c-1.891-7.312-9.079-12.078-16.51-11.035   c-8.697,1.22-14.741,10.014-12.535,18.545C43.717,436.523,141.257,512.05,252.953,512.05c98.239,0,186.467-58.742,224.935-147.914   l5.064,12c3.221,7.632,12.019,11.207,19.652,7.987C510.237,380.902,513.813,372.104,510.592,364.472z"/>
	<path d="M34.219,201.533c1.958,0.038,3.928-0.307,5.786-1.084l47.232-19.779c7.641-3.2,11.242-11.988,8.042-19.63   c-3.201-7.643-11.989-11.24-19.63-8.042l-13.442,5.629C96.231,81.031,173.318,30,259.096,30   c98.019,0,183.614,66.278,208.153,161.175c1.616,6.251,7.207,10.418,13.564,10.806c9.613,0.586,17.945-8.786,15.481-18.314   C468.332,75.526,370.793,0,259.096,0C160.857,0,72.63,58.742,34.162,147.914l-5.064-12c-3.221-7.632-12.019-11.207-19.652-7.987   c-7.632,3.221-11.208,12.019-7.988,19.651c0,0,18.917,44.827,18.934,44.866C22.715,197.95,28.412,201.422,34.219,201.533z"/>
	<path d="M369.328,164.871c-8.526-16.201-15.962-30.337-15.962-30.337c-8.903-16.928-25.497-27.034-44.388-27.034H189.844   c-18.877,0-35.465,10.096-44.374,27.006c-1.993,3.785-8.983,17.077-16.496,31.364c31.778-9.745,74.964-15.226,121.473-15.226   C264.691,150.644,325.597,153.299,369.328,164.871z"/>
	<path d="M284.857,351.286v5.621c0,20.729,16.864,37.593,37.593,37.593h45.253c20.729,0,37.593-16.864,37.593-37.593v-22.086   c-13.503,10.317-30.357,16.465-48.624,16.465H284.857z"/>
	<path d="M92.418,332.341v24.566c0,20.729,16.864,37.593,37.593,37.593h45.252c20.729,0,37.593-16.864,37.593-37.593v-5.621h-68.713   C125.003,351.286,106.883,344.593,92.418,332.341z"/>
</g>















</svg>
