<?xml version="1.0" encoding="iso-8859-1"?>
<!-- Generator: Adobe Illustrator 21.0.0, SVG Export Plug-In . SVG Version: 6.00 Build 0)  -->
<svg xmlns="http://www.w3.org/2000/svg" xmlns:xlink="http://www.w3.org/1999/xlink" version="1.1" id="Capa_1" x="0px" y="0px" viewBox="0 0 512.083 512.083" style="enable-background:new 0 0 512.083 512.083;" xml:space="preserve" width="512" height="512">
<g>
	<path d="M112.905,380.057c7.006,3.372,14.854,5.264,23.136,5.264c29.516,0,53.529-24.013,53.529-53.529   c0-8.282-1.892-16.129-5.264-23.136L112.905,380.057z"/>
	<path d="M136.041,278.263c-29.516,0-53.528,24.013-53.528,53.528c0,8.587,2.044,16.702,5.654,23.902l71.777-71.777   C152.743,280.308,144.629,278.263,136.041,278.263z"/>
	<path d="M60.25,122.875v60.75h151.583c0.013,0,0.019-0.001,0.019-0.001l-0.019-60.749H60.25z"/>
	<path d="M242.083,63.042H30c-16.569,0-30,13.431-30,30v332c0,16.569,13.431,30,30,30h212.083c16.569,0,30-13.431,30-30v-332   C272.083,76.473,258.652,63.042,242.083,63.042z M136.041,420.042c-48.661,0-88.25-39.589-88.25-88.25   c0-48.661,39.589-88.25,88.25-88.25c48.661,0,88.25,39.589,88.25,88.25C224.291,380.453,184.702,420.042,136.041,420.042z    M241.833,183.625c0,16.542-13.458,30-30,30H60.25c-16.542,0-30-13.458-30-30v-60.75c0-16.542,13.458-30,30-30h151.583   c16.542,0,30,13.458,30,30V183.625z"/>
	<path d="M497.083,83.542h-15v-11.5c0-8.284-6.716-15-15-15s-15,6.716-15,15v11.5h-15c-8.284,0-15,6.716-15,15v114   c0,8.284,6.716,15,15,15h15v161.51h-150v30h165c8.284,0,15-6.716,15-15v-176.51h15c8.284,0,15-6.716,15-15v-114   C512.083,90.257,505.367,83.542,497.083,83.542z"/>
	<path d="M362.083,344.051v-116.51h15c8.284,0,15-6.716,15-15v-114c0-8.284-6.716-15-15-15h-15v-11.5c0-8.284-6.716-15-15-15   s-15,6.716-15,15v11.5h-15c-8.284,0-15,6.716-15,15v114c0,8.284,6.716,15,15,15h15v101.51h-30v30h45   C355.367,359.051,362.083,352.336,362.083,344.051z"/>
</g>















</svg>
