<?xml version="1.0" encoding="iso-8859-1"?>
<!-- Generator: Adobe Illustrator 21.0.0, SVG Export Plug-In . SVG Version: 6.00 Build 0)  -->
<svg xmlns="http://www.w3.org/2000/svg" xmlns:xlink="http://www.w3.org/1999/xlink" version="1.1" id="Capa_1" x="0px" y="0px" viewBox="0 0 512 512" style="enable-background:new 0 0 512 512;" xml:space="preserve" width="512" height="512">
<g>
	<path d="M392,151.5c0,8.271,6.729,15,15,15s15-6.729,15-15s-6.729-15-15-15S392,143.229,392,151.5z"/>
	<path d="M512,151.5c0-57.897-47.103-105-105-105c-1.348,0-346.621,0-347,0c-33.084,0-60,26.916-60,60   c0,11.766,3.418,22.743,9.294,32.016c0.056,0.099,161.651,271.642,161.651,271.642c13.6,32.471,45.706,55.342,83.055,55.342   c29.144,0,55.092-13.928,71.55-35.473c0.885-1.156,164.856-214.792,165.61-215.808C504.245,196.706,512,174.992,512,151.5z    M452,151.5c0,24.813-20.187,45-45,45s-45-20.187-45-45s20.187-45,45-45S452,126.687,452,151.5z M407,256.5   c5.02,0,9.956-0.362,14.79-1.047l-79.347,103.364C334.598,317.135,297.927,285.5,254,285.5c-39.814,0-73.667,25.99-85.5,61.892   L60.828,166.479C93.53,166.033,120,139.306,120,106.5c0-10.924-2.949-21.167-8.072-29.999h221.667   C314.112,95.573,302,122.147,302,151.5C302,209.397,349.103,256.5,407,256.5z M60,91.5c8.271,0,15,6.729,15,15s-6.729,15-15,15   s-15-6.729-15-15S51.729,91.5,60,91.5z M254,390.5c-8.262,0-15-6.739-15-15c0-8.262,6.738-15,15-15c8.262,0,15,6.738,15,15   C269,383.762,262.262,390.5,254,390.5z"/>
</g>















</svg>
