<?xml version="1.0" encoding="iso-8859-1"?>
<!-- Generator: Adobe Illustrator 21.0.0, SVG Export Plug-In . SVG Version: 6.00 Build 0)  -->
<svg xmlns="http://www.w3.org/2000/svg" xmlns:xlink="http://www.w3.org/1999/xlink" version="1.1" id="Capa_1" x="0px" y="0px" viewBox="0 0 512 512" style="enable-background:new 0 0 512 512;" xml:space="preserve" width="512" height="512">
<g>
	<path d="M0,321.185v27.511c0,20.977,17.065,38.042,38.042,38.042h46.153c20.977,0,38.042-17.065,38.042-38.042v-3.45H61.18   C38.391,345.246,16.816,336.722,0,321.185z"/>
	<path d="M200.538,121.141c16.24,0,79.624,2.765,132.682,14.073c6.283-1.422,12.695-2.496,19.217-3.203   c-8.68-16.496-15.309-29.096-15.309-29.096C325.96,81.679,305.158,69,281.483,69H119.247c-23.657,0-44.452,12.665-55.625,33.879   c-2.54,4.822-11.038,20.98-20.502,38.976c17.581-5.74,38.192-10.406,61.53-13.915C134.233,123.492,167.391,121.141,200.538,121.141   z"/>
	<path d="M137.993,223.754h80.988c14.16-27.398,35.513-50.495,61.542-66.791c-36.991-4.547-70.868-5.822-79.985-5.822   c-64.567,0-125.187,9.115-162.156,24.383c-23.62,9.753-38.316,32.085-38.354,58.281l-0.027,18.546   c-0.024,17.069,6.542,33.059,18.49,45.024c11.508,11.524,26.668,17.871,42.688,17.871h139.33C200.173,310.874,200,306.457,200,302   c0-16.749,2.432-32.938,6.941-48.246h-68.948c-8.284,0-15-6.716-15-15S129.709,223.754,137.993,223.754z M76.492,254.178   c-8.467,0-15.373-6.906-15.373-15.373c0-8.467,6.906-15.373,15.373-15.373c8.467,0,15.373,6.906,15.373,15.373   C91.865,247.272,84.959,254.178,76.492,254.178z"/>
	<path d="M371,161c-77.748,0-141,63.252-141,141s63.252,141,141,141s141-63.252,141-141S448.748,161,371,161z M431.73,362.73   c-2.929,2.929-6.768,4.394-10.606,4.394s-7.678-1.465-10.606-4.394l-50.124-50.124C357.58,309.794,356,305.979,356,302v-70.815   c0-8.284,6.716-15,15-15s15,6.716,15,15v64.603l45.73,45.73C437.589,347.375,437.589,356.873,431.73,362.73z"/>
</g>















</svg>
